<svg xmlns="http://www.w3.org/2000/svg" width="100%" height="auto" viewBox="216 276 632 108" version="1.1">
    <path d="M 285.500 283.004 C 273.610 283.753, 270 286.622, 270 295.323 C 270 299.536, 270.463 300.663, 273.400 303.600 C 276.337 306.537, 277.464 307, 281.677 307 C 284.479 307, 287.503 306.336, 288.783 305.439 C 290.997 303.889, 294 299.059, 294 297.050 C 294 295.349, 286.028 295.764, 285.362 297.500 C 284.613 299.450, 280.603 299.432, 278.975 297.470 C 278.005 296.301, 277.971 295.359, 278.832 293.470 C 279.925 291.071, 280.260 291, 290.479 291 L 301 291 301 305.864 L 301 320.728 296.331 318.364 C 290.411 315.367, 281.397 315.182, 275.337 317.934 C 273.047 318.974, 268.396 322.378, 265.001 325.499 C 258.066 331.875, 253.861 334, 248.181 334 C 242.789 334, 238.255 332.308, 233.086 328.366 C 226.078 323.022, 221.164 324.144, 224.713 330.277 C 227.118 334.434, 235.167 339.843, 240.125 340.636 L 244 341.256 244 353.128 L 244 365 233.750 365.040 L 223.500 365.079 228.347 369.540 C 239.217 379.544, 256.924 379.508, 268.866 369.459 C 274.054 365.094, 273.124 364.465, 262.002 364.816 L 252 365.133 252 353.066 C 252 342.250, 252.181 340.998, 253.750 340.978 C 257.002 340.937, 264.476 336.916, 268.500 333.043 C 275.730 326.082, 279.692 324, 285.705 324 C 291.654 324, 294.098 324.937, 298.250 328.809 L 301 331.374 301 354.187 L 301 377 305.500 377 L 310 377 310 356.715 L 310 336.430 315.999 336.465 L 321.998 336.500 321.999 356.750 L 322 377 326.500 377 L 331 377 331 354.104 L 331 331.207 334.473 328.158 C 342.488 321.121, 350.520 322.029, 360.536 331.106 C 367.319 337.253, 373.539 341, 376.960 341 C 378.901 341, 379 341.588, 379 353.066 L 379 365.133 368.998 364.816 C 363.497 364.642, 358.997 364.882, 358.998 365.349 C 358.999 365.816, 360.433 367.536, 362.185 369.173 C 373.043 379.315, 391.306 379.644, 402.381 369.896 C 404.969 367.618, 406.857 365.524, 406.576 365.243 C 406.296 364.962, 401.776 364.819, 396.533 364.925 L 387 365.117 387 353.186 L 387 341.256 390.763 340.654 C 398.714 339.383, 409.614 329.650, 406.836 326.303 C 405.037 324.135, 402.026 324.822, 397.917 328.339 C 391.567 333.774, 382.512 335.494, 375.554 332.587 C 373.694 331.810, 369.394 328.620, 365.999 325.499 C 362.604 322.378, 357.953 318.974, 355.663 317.934 C 350.061 315.390, 340.854 315.430, 335.141 318.022 C 332.743 319.110, 330.718 320, 330.641 320 C 330.563 320, 330.500 313.461, 330.500 305.469 L 330.500 290.937 340.894 291.219 C 349.509 291.452, 351.475 291.799, 352.388 293.250 C 354.708 296.935, 348.833 300.913, 346.040 297.548 C 344.782 296.033, 338.946 295.387, 337.707 296.627 C 336.724 297.609, 339.685 302.607, 342.615 304.912 C 344.407 306.321, 346.721 307, 349.735 307 C 353.480 307, 354.749 306.451, 357.600 303.600 C 360.595 300.605, 361 299.580, 361 295 C 361 290.420, 360.595 289.395, 357.600 286.400 C 354.896 283.696, 353.412 283.005, 350.350 283.023 C 348.233 283.035, 334.575 282.923, 320 282.773 C 305.425 282.623, 289.900 282.727, 285.500 283.004 M 495.301 287.816 C 494.694 288.192, 492.396 294.575, 490.193 302 C 487.990 309.425, 485.955 314.825, 485.670 314 C 485.385 313.175, 484.693 310.925, 484.133 309 C 479.029 291.469, 477.759 288, 476.439 288 C 475.648 288, 475 288.322, 475 288.716 C 475 290.936, 484.395 319.613, 485.309 320.184 C 487.149 321.333, 487.800 320.257, 490.426 311.723 C 491.817 307.201, 494.043 300.009, 495.372 295.743 C 497.692 288.292, 497.675 286.344, 495.301 287.816 M 516.683 287.650 C 515.652 288.681, 515.893 317.283, 516.947 318.948 C 518.375 321.205, 530.327 321.671, 533.498 319.593 C 535.983 317.965, 536 317.852, 536 302.977 C 536 290.452, 535.759 288, 534.527 288 C 533.308 288, 533.006 290.550, 532.777 302.750 L 532.500 317.500 526 317.500 L 519.500 317.500 519.221 303.021 C 518.961 289.528, 518.372 285.961, 516.683 287.650 M 637.750 287.755 C 628.872 288.083, 625.241 290, 633.500 290 L 638 290 638 305.583 C 638 317.605, 638.286 321.072, 639.250 320.751 C 640.160 320.449, 640.575 316.211, 640.776 305.168 L 641.052 290 645.109 290 C 647.797 290, 649.033 289.599, 648.771 288.813 C 648.283 287.348, 648.426 287.362, 637.750 287.755 M 445.622 296.250 C 439.996 314.828, 438.645 319.978, 439.241 320.574 C 440.430 321.763, 441.949 319.902, 443.011 315.958 L 444.077 312 449.961 312 L 455.845 312 457.043 315.750 C 458.451 320.154, 459.456 321.454, 460.808 320.618 C 461.413 320.244, 460.909 317.223, 459.496 312.756 C 458.233 308.765, 456.003 301.563, 454.539 296.750 C 452.426 289.798, 451.493 288, 450 288 C 448.515 288, 447.597 289.730, 445.622 296.250 M 555.225 304.250 C 555.456 317.882, 555.741 320.500, 556.995 320.500 C 558.216 320.500, 558.429 319.162, 558.153 313.202 L 557.816 305.904 564.658 306.202 L 571.500 306.500 571.796 313.250 C 572.019 318.354, 572.446 320, 573.546 320 C 574.679 320, 575 318.459, 575 313.008 C 575 307.349, 574.656 305.802, 573.193 304.888 C 571.452 303.801, 571.452 303.497, 573.176 296.630 C 575.353 287.958, 575.351 288, 573.539 288 C 572.651 288, 571.662 289.670, 571.022 292.250 C 568.237 303.465, 568.948 302.500, 563.463 302.500 L 558.500 302.500 558.500 295.248 C 558.500 288.969, 558.262 287.997, 556.725 287.998 C 555.087 288, 554.972 289.251, 555.225 304.250 M 597.724 303.570 C 595.097 312.115, 593.225 319.554, 593.563 320.102 C 594.598 321.776, 596.737 319.218, 597.441 315.464 L 598.091 312 604.457 312 L 610.824 312 611.487 315.922 C 612.111 319.619, 614.312 321.922, 615.454 320.074 C 615.740 319.612, 615.154 316.819, 614.153 313.867 C 613.152 310.915, 611.056 303.887, 609.495 298.250 C 607.054 289.431, 606.368 288.002, 604.579 288.017 C 602.771 288.031, 601.878 290.057, 597.724 303.570 M 310 309.393 C 310 329.476, 309.854 329, 316 329 C 322.146 329, 322 329.476, 322 309.393 L 322 291 316 291 L 310 291 310 309.393 M 601.886 300.442 L 599.278 309 604.219 309 C 609.844 309, 609.746 309.552, 606.221 297.692 L 604.495 291.884 601.886 300.442 M 447.706 299.427 C 446.764 302.963, 445.721 306.563, 445.389 307.427 C 444.888 308.734, 445.669 309, 450 309 C 454.331 309, 455.112 308.734, 454.611 307.427 C 454.279 306.563, 453.236 302.963, 452.294 299.427 C 451.352 295.892, 450.320 293, 450 293 C 449.680 293, 448.648 295.892, 447.706 299.427 M 713.714 310.619 C 713.321 311.012, 713 314.183, 713 317.667 L 713 324 717.546 324 L 722.091 324 721.796 317.250 L 721.500 310.500 717.964 310.202 C 716.020 310.039, 714.107 310.226, 713.714 310.619 M 727 317 L 727 324 731 324 L 735 324 735 317 L 735 310 731 310 L 727 310 727 317 M 487.750 330.780 L 475 331.060 475 353.530 L 475 376 488.500 376 L 502 376 502 372 L 502 368 492.500 368 L 483 368 483 362.500 L 483 357 490 357 L 497 357 497 353.500 L 497 350 490 350 L 483 350 483 344 L 483 338 492.500 338 L 502 338 502 334.559 C 502 332.666, 501.663 330.979, 501.250 330.809 C 500.837 330.639, 494.762 330.626, 487.750 330.780 M 713.250 330.789 L 710 331.127 710 351.992 C 710 369.627, 710.243 373.100, 711.571 374.429 C 713.859 376.716, 735.141 376.716, 737.429 374.429 C 738.757 373.100, 739 369.621, 739 351.929 L 739 331 735.250 330.999 L 731.500 330.998 731.500 349.608 L 731.500 368.219 724.666 368.220 L 717.832 368.222 717.955 349.694 C 718.022 339.503, 717.722 331.005, 717.288 330.809 C 716.855 330.613, 715.038 330.604, 713.250 330.789 M 747.250 330.794 C 745.462 330.977, 744 331.506, 744 331.971 C 744 332.692, 753.012 363.020, 756.118 372.750 C 757.043 375.648, 757.558 376, 760.871 376 L 764.587 376 770.918 355.250 C 774.400 343.837, 777.470 333.712, 777.741 332.750 C 778.152 331.289, 777.560 331, 774.149 331 L 770.064 331 767.590 339.250 C 766.230 343.788, 764.385 350.200, 763.490 353.500 C 762.595 356.800, 761.628 360.175, 761.340 361 C 761.052 361.825, 758.855 355.569, 756.457 347.099 C 754.059 338.628, 751.738 331.419, 751.299 331.079 C 750.859 330.739, 749.038 330.610, 747.250 330.794 M 440.200 332.200 C 439.346 333.054, 439 339.237, 439 353.665 C 439 372.677, 439.120 373.994, 440.934 374.965 C 441.998 375.534, 447.762 376, 453.743 376 C 467.456 376, 468.429 375.429, 468.470 367.353 L 468.500 361.500 464.750 361.190 C 461.061 360.884, 461 360.937, 461 364.440 L 461 368 454.500 368 C 450.925 368, 447.749 368, 447.441 368 C 447.134 368, 446.881 361.363, 446.879 353.250 L 446.876 338.500 453.938 338.206 L 461 337.912 461 340.956 C 461 343.841, 461.209 344, 465 344 L 469 344 469 339.723 C 469 337.370, 468.299 334.445, 467.443 333.223 C 465.979 331.132, 465.162 331, 453.643 331 C 445.454 331, 441.003 331.397, 440.200 332.200 M 511.965 344.930 L 519 358.973 519 367.487 L 519 376 523 376 L 527 376 527 367.487 L 527 358.973 534.007 344.987 L 541.013 331 536.632 331 L 532.251 331 527.909 340.983 C 525.520 346.473, 523.254 350.636, 522.874 350.233 C 522.494 349.830, 520.367 345.450, 518.148 340.500 L 514.114 331.500 509.522 331.194 L 504.930 330.888 511.965 344.930 M 545 353.500 L 545 376 549 376 L 553 376 553 366.500 L 553 357 560 357 L 567 357 567 366.500 L 567 376 571 376 L 575 376 575 353.500 L 575 331 571 331 L 567 331 567 340.500 L 567 350 560 350 L 553 350 553 340.500 L 553 331 549 331 L 545 331 545 353.500 M 582 352.465 C 582 372.663, 582.114 373.991, 583.934 374.965 C 584.998 375.534, 590.816 376, 596.863 376 C 605.524 376, 608.191 375.667, 609.429 374.429 C 610.757 373.100, 611 369.621, 611 351.929 L 611 331 607 331 L 603 331 603 349.500 L 603 368 597 368 C 593.700 368, 590.721 367.887, 590.380 367.750 C 590.038 367.613, 589.839 359.288, 589.936 349.250 L 590.113 331 586.056 331 L 582 331 582 352.465 M 618 353.500 L 618 376 622 376 L 626 376 626.058 361.750 L 626.115 347.500 633.291 361.750 L 640.468 376 644.234 376 L 648 376 648 353.500 L 648 331 643.946 331 L 639.892 331 640.196 344.502 C 640.363 351.928, 640.275 357.977, 640 357.945 C 639.725 357.914, 636.599 351.838, 633.054 344.444 L 626.607 331 622.304 331 L 618 331 618 353.500 M 674.035 332.934 C 673.426 334.072, 673 342.656, 673 353.779 C 673 377.285, 672.139 376, 687.894 376 C 694.075 376, 700.002 375.534, 701.066 374.965 C 702.813 374.030, 703 372.771, 703 361.965 L 703 350 695.500 350 L 688 350 688 353.440 C 688 356.692, 688.204 356.896, 691.750 357.190 L 695.500 357.500 695.829 362.750 L 696.159 368 688.579 368 L 681 368 681 352.956 L 681 337.912 688.250 338.206 L 695.500 338.500 695.178 341.250 C 694.874 343.852, 695.075 344, 698.928 344 L 703 344 703 338.700 C 703 335.785, 702.460 332.860, 701.800 332.200 C 700.992 331.392, 696.430 331, 687.835 331 C 676.238 331, 674.976 331.177, 674.035 332.934 M 782 353.500 L 782 376 795.500 376 L 809 376 809 372 L 809 368 799.500 368 L 790 368 790 362.500 L 790 357 797 357 L 804 357 804 353.500 L 804 350 797 350 L 790 350 790 344 L 790 338 799.500 338 L 809 338 809 334.500 L 809 331 795.500 331 L 782 331 782 353.500 M 815 353.500 L 815 376 827.391 376 L 839.781 376 840.202 372.396 C 840.720 367.957, 840.236 367.745, 830.565 368.169 L 822.995 368.500 822.998 349.750 L 823 331 819 331 L 815 331 815 353.500" stroke="none" fill="#ffffff" fill-rule="evenodd"/>
</svg>
