<svg xmlns="http://www.w3.org/2000/svg" width="479" height="478" viewBox="0 0 479 478">
<g>
<path d="M 286.18 406.34 C289.01,403.78 287.77,400.24 282.34,395.33 C276.57,390.11 276.83,387.45 283.02,388.28 C287.28,388.85 288.26,387.74 285.02,386.01 C283.56,385.23 282.13,385.34 279.52,386.43 C276.54,387.67 276.00,388.38 276.00,391.08 C276.00,393.57 276.99,395.18 280.59,398.53 C284.62,402.29 285.04,403.06 284.05,404.90 C282.72,407.39 280.28,407.59 277.22,405.44 C275.15,403.99 275.00,404.02 275.00,405.86 C275.00,406.95 275.56,408.08 276.25,408.38 C278.42,409.34 284.17,408.15 286.18,406.34 ZM 316.34 406.11 C317.95,404.49 318.50,402.30 318.94,395.55 C319.49,387.33 319.05,385.75 316.50,386.64 C315.91,386.85 315.64,390.11 315.83,394.55 C316.23,403.66 314.66,407.00 309.98,407.00 C304.59,407.00 303.00,404.16 303.00,394.50 C303.00,386.19 302.95,386.00 300.60,386.00 C297.96,386.00 298.06,384.83 299.54,399.15 C300.10,404.62 301.47,406.92 305.00,408.34 C307.77,409.45 314.27,408.17 316.34,406.11 ZM 195.10 405.05 C197.94,402.21 198.05,401.77 197.91,393.55 C197.78,386.19 197.52,385.00 196.05,385.00 C194.54,385.00 194.38,385.94 194.71,392.75 C195.18,402.23 193.88,405.36 189.29,405.81 C183.70,406.35 182.00,403.48 182.00,393.50 C182.00,385.28 181.92,385.00 179.69,385.00 C177.48,385.00 177.39,385.28 177.72,391.25 C177.92,394.69 178.30,398.94 178.58,400.71 C179.71,408.00 189.56,410.59 195.10,405.05 ZM 216.16 403.50 C215.85,399.63 216.06,399.00 217.69,399.00 C218.73,399.00 221.27,401.02 223.34,403.50 C226.20,406.92 227.79,408.00 229.98,408.00 C232.84,408.00 232.83,407.98 227.77,403.15 C222.78,398.39 222.71,398.25 224.34,395.93 C228.28,390.30 225.22,386.19 216.44,385.28 C211.24,384.74 210.73,384.86 211.33,386.42 C211.70,387.38 212.00,392.63 212.00,398.08 C212.00,407.71 212.07,408.00 214.26,408.00 C216.32,408.00 216.48,407.61 216.16,403.50 ZM 260.81 405.04 C269.22,396.63 261.76,384.02 249.37,385.68 C242.91,386.54 239.84,389.61 239.25,395.78 C238.78,400.65 238.96,401.15 242.28,404.48 C245.53,407.73 246.26,408.00 251.82,408.00 C257.17,408.00 258.18,407.67 260.81,405.04 ZM 165.00 405.00 C167.52,402.48 167.54,399.95 165.04,396.78 C163.57,394.91 163.23,393.38 163.67,390.67 C164.19,387.41 163.98,386.94 161.56,386.02 C160.08,385.46 157.21,385.00 155.17,385.00 L 151.48 385.00 L 152.05 392.25 C152.36,396.24 152.48,401.19 152.31,403.25 L 152.00 407.00 L 157.50 407.00 C161.67,407.00 163.49,406.51 165.00,405.00 ZM 356.00 399.52 C364.84,398.18 380.82,396.87 407.50,395.31 C427.79,394.11 414.17,393.14 375.92,393.04 L 339.00 392.94 L 339.00 397.60 L 339.00 402.26 L 342.75 401.61 C344.81,401.25 350.77,400.31 356.00,399.52 ZM 132.00 396.00 L 132.00 391.00 L 102.25 390.95 C85.89,390.93 66.20,390.66 58.50,390.36 C50.80,390.06 44.83,390.15 45.23,390.56 C45.64,390.97 54.41,391.91 64.73,392.65 C85.54,394.15 113.99,397.41 124.00,399.44 C127.57,400.17 130.84,400.82 131.25,400.88 C131.66,400.95 132.00,398.75 132.00,396.00 ZM 186.77 382.19 C186.99,381.53 186.45,381.00 185.58,381.00 C184.71,381.00 184.00,381.71 184.00,382.58 C184.00,384.35 186.15,384.04 186.77,382.19 ZM 193.00 381.94 C193.00,381.42 192.32,381.00 191.50,381.00 C189.95,381.00 189.51,382.18 190.64,383.31 C191.44,384.11 193.00,383.20 193.00,381.94 ZM 281.67 368.35 C287.37,365.65 288.38,363.13 288.44,351.46 C288.47,345.80 288.84,340.83 289.25,340.42 C290.83,338.84 289.87,338.00 286.50,338.00 C283.13,338.00 281.92,339.21 284.00,340.50 C285.33,341.32 285.29,357.88 283.95,361.71 C282.03,367.21 274.15,368.76 269.31,364.59 C266.52,362.19 266.50,362.09 266.50,350.17 L 266.50 338.16 L 263.77 337.75 C260.61,337.29 258.15,338.35 259.89,339.43 C260.58,339.86 261.00,343.75 261.00,349.59 C261.00,355.33 261.54,360.35 262.36,362.33 C265.17,369.04 274.25,371.87 281.67,368.35 ZM 310.05 367.94 C309.81,367.15 309.43,363.83 309.21,360.57 L 308.80 354.64 L 316.92 361.81 C324.86,368.82 328.01,370.53 331.65,369.83 C333.12,369.55 332.88,369.12 330.36,367.49 C326.58,365.06 313.00,352.80 313.00,351.83 C313.00,351.44 316.04,348.56 319.75,345.42 C323.46,342.29 326.65,339.33 326.83,338.86 C327.02,338.39 325.78,338.00 324.08,338.00 C322.11,338.00 321.00,338.50 321.00,339.40 C321.00,340.17 318.24,343.19 314.87,346.11 L 308.74 351.42 L 309.17 344.71 L 309.59 338.00 L 305.67 338.00 C302.50,338.00 301.97,338.26 302.88,339.35 C304.36,341.14 305.32,364.54 304.01,366.99 C303.18,368.53 303.40,368.94 305.25,369.30 C308.79,370.00 310.54,369.51 310.05,367.94 ZM 360.65 368.07 C364.81,365.53 366.02,361.48 366.28,349.13 L 366.50 339.00 L 363.55 339.00 C361.26,339.00 360.87,339.27 361.80,340.20 C362.58,340.98 363.00,345.10 363.00,352.06 C363.00,362.25 362.88,362.84 360.36,365.36 C358.34,367.39 356.74,368.00 353.45,368.00 C349.88,368.00 348.74,367.48 346.51,364.83 C343.90,361.73 343.85,361.39 344.17,350.01 L 344.50 338.36 L 340.75 338.14 C337.01,337.92 336.11,338.71 337.98,340.58 C338.53,341.13 339.03,345.38 339.10,350.03 C339.26,360.77 340.58,364.81 344.90,367.72 C349.21,370.62 356.22,370.78 360.65,368.07 ZM 407.00 368.50 C407.00,367.67 406.66,366.99 406.25,366.99 C405.84,366.98 401.96,363.72 397.63,359.73 L 389.75 352.50 L 396.82 346.50 C400.70,343.20 403.90,340.16 403.94,339.75 C404.07,338.17 399.79,339.09 399.30,340.75 C398.75,342.64 387.96,352.30 387.23,351.56 C386.98,351.32 386.82,348.39 386.87,345.06 C386.95,339.19 386.87,339.00 384.37,339.00 C382.14,339.00 381.87,339.33 382.38,341.39 C383.20,344.66 383.32,366.68 382.52,367.96 C382.14,368.59 383.02,369.00 384.73,369.00 L 387.57 369.00 L 387.00 362.97 C386.68,359.65 386.69,356.50 387.03,355.96 C387.36,355.42 389.85,357.06 392.57,359.59 C398.21,364.88 404.90,370.00 406.15,370.00 C406.62,370.00 407.00,369.33 407.00,368.50 ZM 152.34 366.23 C157.53,363.20 160.00,358.58 160.00,351.89 C160.00,346.83 159.60,345.62 156.95,342.60 C149.11,333.67 133.45,334.05 127.40,343.33 C123.09,349.93 123.61,357.32 128.80,363.08 C134.10,368.98 145.12,370.45 152.34,366.23 ZM 189.80 367.80 C191.20,366.40 191.41,363.00 190.11,363.00 C189.62,363.00 188.95,363.70 188.62,364.56 C188.17,365.73 186.84,366.03 183.27,365.81 C178.59,365.50 178.52,365.45 177.82,361.50 C176.63,354.73 176.88,339.52 178.20,338.20 C179.13,337.27 178.33,337.00 174.58,337.00 C170.85,337.00 169.98,337.28 170.77,338.25 C172.32,340.16 173.44,363.32 172.10,365.81 C171.09,367.71 171.30,367.91 174.75,368.27 C182.93,369.13 188.65,368.95 189.80,367.80 ZM 223.60 367.12 C222.30,365.67 221.97,363.77 222.20,358.97 L 222.50 352.71 L 231.19 352.60 L 239.87 352.50 L 240.32 355.50 C241.18,361.18 241.05,365.85 240.03,366.48 C237.74,367.90 239.26,369.00 243.50,369.00 C247.70,369.00 249.58,367.69 246.75,366.75 C245.84,366.45 245.45,362.43 245.33,351.92 C245.16,338.00 245.08,337.49 243.00,337.17 C240.20,336.74 237.18,337.87 238.64,338.80 C239.23,339.19 239.94,341.86 240.21,344.75 L 240.71 350.00 L 231.24 350.00 L 221.77 350.00 L 222.18 343.50 L 222.59 337.00 L 218.80 337.00 C214.91,337.00 214.16,337.76 216.10,339.70 C216.83,340.43 217.08,345.55 216.85,354.90 L 216.50 369.00 L 220.90 369.00 C225.16,369.00 225.25,368.93 223.60,367.12 ZM 77.06 366.34 C78.71,364.69 77.25,362.54 75.48,364.02 C73.42,365.72 67.87,365.54 66.53,363.71 C65.89,362.83 65.26,359.84 65.13,357.06 L 64.90 352.00 L 68.75 352.00 C70.87,352.00 73.14,352.54 73.80,353.20 C74.73,354.13 75.00,353.83 75.00,351.82 C75.00,349.39 74.72,349.25 70.25,349.37 L 65.50 349.50 L 65.50 344.00 L 65.50 338.50 L 69.50 338.82 C71.70,338.99 73.65,339.56 73.84,340.07 C74.39,341.61 76.00,340.03 76.00,337.96 C76.00,336.21 75.24,336.04 67.51,336.10 C59.74,336.16 59.10,336.31 59.95,337.91 C60.47,338.88 60.80,345.82 60.70,353.33 C60.59,360.85 60.85,367.11 61.27,367.25 C63.70,368.04 76.08,367.32 77.06,366.34 ZM 99.00 367.23 C99.00,367.03 98.32,366.18 97.50,365.36 C96.62,364.48 96.00,362.03 96.00,359.43 C96.00,355.35 96.20,355.00 98.55,355.00 C100.38,355.00 102.85,356.82 107.32,361.50 C112.83,367.26 113.97,368.00 117.33,368.00 C119.60,368.00 120.87,367.60 120.50,367.00 C120.16,366.45 119.30,366.00 118.59,366.00 C117.88,366.00 114.76,363.33 111.65,360.07 C106.32,354.49 104.86,352.00 106.89,352.00 C108.33,352.00 111.17,345.11 110.54,343.13 C109.13,338.67 105.54,336.85 97.85,336.67 C92.06,336.54 90.56,336.79 90.79,337.88 C91.85,342.84 92.11,364.16 91.13,365.34 C90.52,366.08 90.33,366.99 90.70,367.37 C91.40,368.06 99.00,367.94 99.00,367.23 ZM 290.50 307.89 C300.91,306.83 313.41,304.39 316.00,302.91 C316.91,302.39 313.91,302.05 308.32,302.03 C298.91,302.00 287.35,300.78 278.50,298.88 C270.07,297.06 252.78,291.84 247.38,289.47 C244.10,288.03 241.76,287.54 240.88,288.10 C240.12,288.58 235.90,290.16 231.50,291.62 C227.10,293.07 223.01,294.65 222.41,295.12 C221.81,295.60 221.11,295.78 220.86,295.53 C220.61,295.28 216.87,295.93 212.54,296.99 C208.22,298.04 201.71,299.20 198.09,299.56 C194.47,299.93 190.38,300.37 189.00,300.54 C187.62,300.72 182.92,300.89 178.55,300.93 C173.18,300.98 170.93,301.33 171.61,302.01 C172.64,303.04 184.04,305.88 189.50,306.47 C191.15,306.65 196.32,307.29 201.00,307.89 C216.37,309.87 222.18,309.42 233.08,305.37 L 242.87 301.74 L 252.18 305.28 C257.31,307.22 262.17,309.04 263.00,309.33 C264.77,309.94 276.46,309.32 290.50,307.89 ZM 196.00 293.11 C203.11,291.94 212.65,289.34 216.65,287.47 C218.38,286.66 220.39,286.00 221.10,286.00 C221.91,286.00 222.04,285.65 221.45,285.08 C219.59,283.27 209.28,281.77 193.50,281.02 C169.09,279.84 152.77,277.29 138.37,272.40 C130.33,269.68 131.38,271.52 141.04,277.11 C151.02,282.88 153.07,283.93 159.50,286.53 C170.44,290.96 185.47,295.06 188.50,294.43 C189.60,294.20 192.98,293.60 196.00,293.11 ZM 317.79 290.43 C331.00,286.03 343.73,279.94 350.94,274.56 C354.81,271.68 353.87,271.29 348.27,273.46 C336.92,277.84 317.08,280.80 294.44,281.50 C279.71,281.95 271.54,282.85 266.05,284.62 C263.91,285.31 269.22,288.55 274.88,290.01 C277.42,290.66 280.17,291.45 281.00,291.76 C281.83,292.07 282.76,292.27 283.08,292.21 C283.40,292.16 285.65,292.73 288.08,293.49 C296.36,296.07 302.90,295.40 317.79,290.43 ZM 264.00 277.44 C266.48,277.05 269.04,276.30 269.71,275.78 C270.37,275.26 271.32,275.08 271.83,275.39 C272.33,275.71 277.04,274.24 282.29,272.13 C310.66,260.76 331.70,238.24 339.10,211.33 C347.31,181.43 337.23,147.67 313.29,124.93 C284.23,97.33 239.94,88.32 201.50,102.20 C155.01,118.99 130.28,165.81 144.16,210.78 C151.02,233.04 169.77,255.29 190.36,265.61 C194.29,267.57 197.95,269.51 198.50,269.91 C199.05,270.31 204.00,272.08 209.50,273.83 C225.72,279.01 245.65,280.33 264.00,277.44 ZM 332.31 272.18 C341.86,269.54 362.97,251.82 373.39,237.68 C376.76,233.12 376.07,231.63 372.24,235.18 C362.35,244.34 335.84,257.56 317.16,262.65 C312.19,264.01 299.07,271.63 299.02,273.19 C298.97,274.94 325.18,274.15 332.31,272.18 ZM 182.38 272.96 L 186.50 272.92 L 183.04 269.96 C181.13,268.33 179.18,267.00 178.69,267.00 C178.21,267.00 176.61,266.17 175.15,265.15 C173.69,264.13 169.12,262.13 165.00,260.71 C160.88,259.29 155.49,257.39 153.03,256.49 C144.48,253.37 126.44,243.74 117.25,237.39 C112.16,233.88 107.75,231.00 107.44,231.00 C106.18,231.00 113.80,240.46 120.77,247.55 C128.45,255.35 139.11,263.79 147.01,268.32 C152.24,271.32 168.66,274.25 175.38,273.37 C176.96,273.17 180.11,272.98 182.38,272.96 ZM 337.07 248.52 C341.16,247.15 347.82,244.35 351.89,242.28 C358.32,239.02 359.92,237.62 364.23,231.52 C372.20,220.22 377.06,209.81 382.55,192.25 C383.53,189.12 380.94,191.61 376.25,198.32 C369.50,207.99 358.63,219.53 347.30,229.06 C342.24,233.32 337.71,236.96 337.23,237.15 C336.76,237.34 333.99,240.54 331.09,244.25 C324.96,252.10 325.40,252.42 337.07,248.52 ZM 157.00 249.00 C157.00,246.75 147.58,236.09 142.23,232.31 C130.28,223.84 111.46,204.36 103.52,192.25 C101.99,189.91 100.39,188.00 99.97,188.00 C99.03,188.00 101.98,197.64 105.45,205.89 C108.88,214.04 117.19,227.80 121.94,233.19 C126.06,237.87 136.85,243.85 148.00,247.64 C155.45,250.16 157.00,250.40 157.00,249.00 ZM 351.83 216.62 C361.31,209.30 368.49,201.08 370.27,195.49 C372.96,187.05 374.32,176.07 374.32,162.94 C374.31,148.02 372.88,143.46 371.02,152.43 C368.15,166.23 359.43,187.95 351.53,200.95 C347.97,206.80 343.53,221.00 345.25,221.00 C345.75,221.00 348.71,219.03 351.83,216.62 ZM 139.00 219.52 C139.00,217.13 133.22,202.82 130.59,198.71 C122.76,186.45 112.37,162.51 109.91,151.03 C109.25,147.95 108.42,146.24 107.78,146.64 C105.76,147.88 107.56,176.30 110.34,187.24 C112.50,195.71 113.43,197.69 117.56,202.52 C120.17,205.58 124.15,209.51 126.40,211.26 C128.66,213.01 130.73,214.70 131.00,215.01 C133.19,217.46 139.00,220.74 139.00,219.52 ZM 357.84 175.48 C363.97,163.02 364.57,160.20 363.19,150.66 C361.70,140.36 358.39,129.94 353.06,118.73 C349.04,110.29 346.18,107.66 348.03,114.10 C350.24,121.82 351.11,141.02 349.87,154.78 C348.34,171.81 348.31,183.59 349.79,186.35 C350.63,187.92 353.87,183.56 357.84,175.48 ZM 132.57 181.94 C133.30,174.15 133.00,167.38 131.53,158.50 C130.27,150.90 129.97,144.30 130.30,131.00 C130.54,121.38 131.07,112.49 131.48,111.25 C131.90,110.01 131.84,109.00 131.35,109.00 C130.02,109.00 123.43,124.49 120.57,134.34 C119.18,139.15 117.75,146.57 117.39,150.84 C116.77,158.28 116.89,158.89 120.41,166.54 C125.12,176.75 130.17,185.11 131.39,184.70 C131.91,184.53 132.45,183.29 132.57,181.94 ZM 344.42 147.73 C345.66,137.85 345.94,128.24 345.10,124.72 C342.98,115.85 324.02,91.13 313.69,83.78 L 310.68 81.63 L 314.37 88.07 C320.76,99.22 326.15,111.11 330.14,122.92 C332.26,129.20 334.00,134.97 334.00,135.73 C334.00,138.01 342.11,153.05 343.03,152.48 C343.50,152.19 344.12,150.05 344.42,147.73 ZM 142.29 144.25 C144.17,140.54 146.03,135.70 146.42,133.50 C147.17,129.23 147.80,126.97 150.92,117.50 C154.21,107.47 157.67,99.31 162.39,90.45 C164.86,85.80 166.62,82.00 166.30,82.00 C165.98,82.00 163.29,84.08 160.32,86.61 C151.18,94.41 137.34,114.32 135.00,123.00 C134.41,125.19 134.20,129.35 134.52,132.24 C135.76,143.23 137.21,151.00 138.02,151.00 C138.49,151.00 140.40,147.96 142.29,144.25 ZM 322.11 117.29 C319.16,105.05 315.63,97.62 310.22,92.35 C302.06,84.39 285.24,73.81 273.25,69.09 C268.02,67.04 266.21,67.40 269.97,69.75 C275.58,73.25 293.26,90.78 301.91,101.42 C310.94,112.52 321.84,123.50 322.84,122.49 C323.07,122.26 322.74,119.92 322.11,117.29 ZM 172.44 106.65 C174.13,104.28 176.86,100.57 178.51,98.42 C182.61,93.06 199.43,76.17 205.36,71.45 C208.04,69.32 209.73,67.41 209.12,67.21 C207.37,66.62 189.76,75.39 181.24,81.08 C176.98,83.92 171.19,88.55 168.37,91.37 C164.00,95.75 162.85,97.74 160.57,104.95 C159.11,109.59 157.63,115.44 157.29,117.93 L 156.66 122.47 L 163.02 116.72 C166.51,113.56 170.75,109.03 172.44,106.65 ZM 195.00 96.44 C198.57,94.96 204.57,91.23 208.32,88.13 C215.69,82.04 217.71,80.55 226.63,74.58 C229.86,72.42 232.95,70.22 233.50,69.70 C235.27,68.01 226.08,69.93 214.88,73.58 C205.17,76.75 203.71,77.56 199.06,82.35 C193.80,87.76 186.09,97.83 186.03,99.36 C186.01,99.83 186.56,99.97 187.25,99.66 C187.94,99.36 191.43,97.91 195.00,96.44 ZM 292.00 99.10 C292.00,97.49 283.25,86.50 278.20,81.78 C273.83,77.70 271.77,76.70 260.15,73.01 C244.85,68.16 241.30,68.03 248.00,72.57 C260.95,81.35 267.09,85.82 272.83,90.66 C276.31,93.60 279.91,96.03 280.83,96.07 C281.75,96.11 284.30,96.98 286.50,98.00 C291.16,100.16 292.00,100.33 292.00,99.10 ZM 256.00 88.00 C255.99,87.22 246.93,81.33 242.74,79.37 C239.06,77.66 238.86,77.67 234.35,79.86 C229.48,82.23 223.00,86.80 223.00,87.87 C223.00,88.22 230.43,88.50 239.50,88.50 C248.58,88.50 256.00,88.28 256.00,88.00 ZM 215.99 395.25 C215.98,394.29 215.75,392.60 215.47,391.50 C214.63,388.10 216.42,386.42 219.43,387.79 C222.00,388.96 222.75,391.87 221.39,395.42 C220.54,397.64 216.00,397.50 215.99,395.25 ZM 249.03 405.68 C242.71,403.53 240.73,394.18 245.57,389.34 C247.71,387.20 248.76,386.86 251.77,387.35 C257.32,388.25 260.52,392.05 260.40,397.59 C260.25,404.71 255.69,407.96 249.03,405.68 ZM 156.67 405.33 C156.30,404.97 156.00,402.72 156.00,400.33 C156.00,396.79 156.34,396.00 157.85,396.00 C162.01,396.00 165.05,404.00 161.42,405.39 C159.35,406.19 157.50,406.16 156.67,405.33 ZM 156.00 390.50 C156.00,387.30 156.27,386.90 158.25,387.18 C160.01,387.43 160.50,388.15 160.50,390.50 C160.50,392.85 160.01,393.57 158.25,393.82 C156.27,394.10 156.00,393.70 156.00,390.50 ZM 136.21 363.86 C131.67,360.95 129.72,356.72 129.85,350.05 C129.95,345.21 130.35,344.15 133.00,341.75 C135.51,339.47 136.95,339.00 141.38,339.00 C150.14,339.00 155.00,344.37 155.00,354.05 C155.00,358.57 154.59,359.61 151.60,362.60 C148.77,365.43 147.48,366.00 143.85,365.98 C141.16,365.97 138.25,365.16 136.21,363.86 ZM 97.25 352.34 C96.42,352.00 96.00,349.49 96.00,344.79 L 96.00 337.75 L 99.25 338.38 C103.40,339.18 106.00,342.32 106.00,346.54 C106.00,351.68 102.07,354.28 97.25,352.34 ZM 225.50 274.01 C215.75,272.20 198.42,266.63 196.00,264.53 C195.18,263.82 192.49,262.22 190.04,260.99 C183.23,257.56 172.47,248.42 164.77,239.53 C135.19,205.35 137.74,155.24 170.61,124.77 C189.48,107.28 211.56,98.88 238.69,98.89 C253.23,98.89 256.57,99.40 272.49,104.06 C283.38,107.24 298.96,116.21 307.91,124.44 C316.54,132.38 320.76,137.54 326.24,146.85 C345.69,179.87 340.77,218.84 313.63,246.82 C305.56,255.14 299.04,259.62 284.72,266.67 C268.76,274.52 244.46,277.54 225.50,274.01 ZM 275.79 237.49 C275.95,236.39 275.42,234.59 274.62,233.49 C273.31,231.70 271.97,231.50 261.32,231.46 C254.81,231.44 248.88,231.05 248.14,230.59 C247.25,230.04 247.00,228.74 247.41,226.72 C247.80,224.74 247.46,222.83 246.45,221.28 C245.13,219.28 245.06,218.05 246.00,213.69 C246.95,209.28 246.83,207.40 245.15,201.14 C243.34,194.42 243.29,193.30 244.58,188.34 C246.39,181.39 246.37,176.55 244.51,170.41 C242.30,163.12 242.49,162.00 245.94,162.00 C247.79,162.00 249.43,161.23 250.35,159.92 C252.40,156.98 258.02,155.98 265.71,157.18 C269.29,157.73 273.30,157.99 274.61,157.73 C275.92,157.48 277.00,157.70 277.00,158.23 C277.00,158.75 274.94,164.42 272.42,170.84 C269.90,177.25 266.25,186.55 264.31,191.50 C262.36,196.45 260.09,201.98 259.26,203.78 C257.89,206.74 257.90,207.23 259.36,208.85 C260.25,209.83 263.12,211.73 265.74,213.07 C269.77,215.13 271.89,215.49 279.50,215.46 C287.22,215.42 289.22,215.04 293.56,212.79 C299.74,209.58 301.67,207.51 300.18,205.72 C299.59,205.01 296.59,198.15 293.51,190.47 C290.43,182.79 287.49,175.60 286.98,174.50 C286.47,173.40 284.68,168.96 283.00,164.64 C280.09,157.18 280.02,156.70 281.71,155.42 C283.31,154.21 283.05,154.06 279.32,154.03 C277.02,154.01 271.48,152.65 267.00,151.00 C257.81,147.61 250.57,147.13 245.80,149.60 C242.86,151.12 242.75,151.11 243.47,149.35 C245.12,145.32 245.06,144.22 242.97,140.68 C241.78,138.65 240.48,137.00 240.09,137.00 C239.69,137.00 238.38,138.76 237.17,140.91 C235.40,144.05 235.17,145.33 235.99,147.47 C237.39,151.16 237.30,151.32 234.78,149.56 C231.09,146.97 221.98,147.57 211.76,151.08 C206.29,152.96 201.85,153.93 200.39,153.56 C197.98,152.96 197.08,154.31 199.08,155.55 C200.44,156.39 199.74,159.25 195.55,170.00 C193.72,174.68 190.53,183.00 188.46,188.50 C186.38,194.00 183.86,200.17 182.85,202.21 L 181.00 205.91 L 183.67 208.58 C191.02,215.93 207.57,217.53 218.54,211.95 C224.38,208.99 225.43,206.87 223.09,202.78 C221.40,199.85 204.00,158.77 204.00,157.72 C204.00,157.20 216.78,156.62 223.47,156.85 C227.47,156.98 228.83,157.51 230.47,159.55 C231.85,161.27 233.30,161.99 235.00,161.79 C237.81,161.46 237.83,161.68 236.45,175.70 C235.90,181.26 236.12,184.08 237.43,188.07 C239.02,192.94 239.02,193.66 237.36,200.67 C235.88,206.95 235.79,208.98 236.79,213.72 C237.65,217.85 237.67,219.69 236.85,220.68 C236.22,221.44 235.97,223.73 236.27,225.99 C236.78,229.79 236.66,230.00 233.54,230.86 C231.74,231.36 226.24,231.53 221.31,231.25 C210.83,230.66 208.00,231.64 208.00,235.87 C208.00,237.41 208.31,238.97 208.68,239.35 C209.05,239.72 224.24,239.91 242.43,239.76 C274.68,239.51 275.51,239.45 275.79,237.49 ZM 273.75 205.25 C267.84,205.08 263.00,204.82 263.00,204.68 C263.00,204.03 278.12,164.55 278.53,164.14 C278.79,163.88 279.17,163.85 279.38,164.08 C280.38,165.17 295.18,200.65 295.68,203.15 L 296.25 206.00 L 290.38 205.79 C287.14,205.67 279.66,205.43 273.75,205.25 ZM 187.00 202.99 C187.00,201.88 187.45,200.19 188.01,199.24 C188.57,198.28 190.31,193.90 191.89,189.50 C197.17,174.82 201.49,164.03 202.12,164.01 C202.66,164.00 205.19,169.82 216.16,196.35 C217.72,200.12 219.00,203.61 219.00,204.10 C219.00,204.60 211.80,205.00 203.00,205.00 C187.63,205.00 187.00,204.92 187.00,202.99 Z" fill="rgba(0,0,0,1)"/>
</g>
</svg>