<svg xmlns="http://www.w3.org/2000/svg" width="100%" height="auto" viewBox="0 0 479 478" version="1.1">
	<path d="M 0.492 239.500 C 0.492 370.950, 0.608 424.576, 0.750 358.670 C 0.892 292.763, 0.892 185.213, 0.750 119.670 C 0.608 54.126, 0.492 108.050, 0.492 239.500 M 198.768 71.004 C 181.467 79.719, 166.904 90.417, 163.574 96.856 C 160.706 102.403, 155.196 121.529, 156.182 122.515 C 157.013 123.347, 170.013 110.267, 175.026 103.556 C 184.898 90.341, 197.763 77.219, 209.589 68.306 C 214.887 64.312, 209.271 65.712, 198.768 71.004 M 266 66.940 C 266 67.574, 267.462 68.860, 269.250 69.797 C 273.539 72.045, 299.357 97.827, 305.133 105.631 C 309.958 112.148, 322.691 124.643, 323.590 123.743 C 325.625 121.708, 315.313 96.181, 310.762 91.987 C 303.730 85.506, 280.676 71.224, 272.500 68.283 C 270.850 67.690, 268.712 66.885, 267.750 66.495 C 266.685 66.064, 266 66.237, 266 66.940 M 222 71.161 C 203.989 76.486, 203.288 76.880, 195.364 86.148 C 185.264 97.960, 182.930 102.983, 189.250 99.307 C 191.037 98.267, 194.750 96.573, 197.500 95.542 C 200.250 94.512, 205.425 91.115, 209 87.993 C 216.616 81.344, 226.774 74.113, 232.682 71.136 C 242.885 65.995, 239.451 66.003, 222 71.161 M 242.500 69.531 C 244.150 70.883, 245.857 71.992, 246.294 71.995 C 247.679 72.004, 265.116 84.295, 269.499 88.352 C 273.980 92.499, 277.824 94.910, 284 97.445 C 287.575 98.912, 291.063 100.361, 291.750 100.664 C 295.592 102.355, 289.792 93.726, 280.551 84 C 274.461 77.590, 270.666 75.393, 261.500 72.972 C 259.850 72.536, 254.675 71.023, 250 69.610 C 239.520 66.444, 238.723 66.435, 242.500 69.531 M 229.200 82.552 C 220.586 88.236, 219.267 90.593, 225.692 88.819 C 229.712 87.709, 252.436 88.183, 255.250 89.435 C 258.172 90.735, 257.308 87.689, 254.244 85.884 C 252.735 84.996, 248.826 82.633, 245.559 80.634 C 238.177 76.119, 239.115 76.009, 229.200 82.552 M 163.055 83.685 C 146.629 97.745, 134.438 117.399, 134.622 129.524 C 134.864 145.503, 137.687 155.776, 140.042 149.250 C 140.588 147.738, 141.936 144.847, 143.038 142.826 C 144.140 140.806, 146.327 134.281, 147.898 128.326 C 149.469 122.372, 151.743 115.025, 152.952 112 C 154.161 108.975, 155.503 105.375, 155.934 104 C 157.029 100.509, 162.340 90.190, 165.198 86 C 166.512 84.075, 167.931 81.938, 168.352 81.250 C 169.804 78.881, 167.349 80.009, 163.055 83.685 M 310 80.874 C 310 81.570, 311.291 84.021, 312.870 86.320 C 316.303 91.321, 323.001 104.365, 326.057 112 C 328.664 118.516, 334 134.812, 334 136.259 C 334 137.739, 342.370 154, 343.132 154 C 344.096 154, 344.822 148.756, 345.552 136.500 L 346.207 125.500 342.761 118.909 C 336.646 107.217, 327.320 95.708, 313.707 83.054 C 311.668 81.158, 310 80.177, 310 80.874 M 226.558 96.037 C 138.121 106.082, 109.295 207.412, 180 259.696 C 220.754 289.832, 284.332 285.057, 317.207 249.391 C 325.019 240.917, 326.096 239.527, 329.918 233 C 368.692 166.785, 308.296 86.753, 226.558 96.037 M 221.500 100.243 C 144.661 115.108, 117.068 203.334, 174.760 249.691 C 177.367 251.786, 179.725 253.747, 180 254.048 C 181.334 255.510, 187.235 259.147, 194.081 262.724 C 272.402 303.658, 361.595 236.202, 331.890 158.500 C 316.610 118.532, 265.738 91.684, 221.500 100.243 M 127.882 113.684 C 116.102 139.633, 114.531 155.516, 122.214 171 C 126.838 180.321, 131.331 186.989, 132.321 186 C 133.371 184.949, 133.261 167.247, 132.171 162 C 130.137 152.209, 129.584 121.415, 131.313 114.254 C 133.391 105.647, 131.660 105.359, 127.882 113.684 M 346.964 110.406 C 350.034 118.481, 351.047 144.284, 349.029 163 C 347.951 173, 348.800 186.958, 350.500 187.182 C 351.946 187.372, 358.492 175.761, 361.975 166.827 L 364.966 159.153 363.365 149.827 C 361.496 138.937, 357.353 126.652, 351.873 115.750 C 348.239 108.520, 344.841 104.821, 346.964 110.406 M 237.140 140.965 C 235.045 144.692, 235.006 145.111, 236.482 147.965 C 238.192 151.272, 237.579 151.752, 234.559 149.468 C 231.403 147.081, 222.541 147.679, 212.223 150.975 C 206.164 152.911, 201.914 153.733, 199.973 153.345 C 196.502 152.650, 195.927 154.355, 199.065 156.035 C 200.435 156.768, 200.826 157.536, 200.227 158.320 C 199.732 158.969, 198.283 162.425, 197.009 166 C 195.735 169.575, 193.941 174.300, 193.023 176.500 C 192.105 178.700, 190.554 182.525, 189.576 185 C 188.598 187.475, 187.169 190.978, 186.399 192.784 C 185.630 194.590, 185 196.524, 185 197.082 C 185 197.640, 184.102 199.955, 183.005 202.225 C 179.989 208.468, 185.361 212.841, 198.770 215.059 C 211.955 217.240, 227.652 210.084, 223.602 203.739 C 222.816 202.507, 220.967 198.575, 219.491 195 C 216.372 187.439, 215.940 186.419, 209.133 170.493 C 202.882 155.871, 202.793 157.167, 210.049 157.133 C 213.376 157.117, 217.020 156.811, 218.147 156.453 C 222.241 155.154, 229.016 156.940, 230.248 159.644 C 231.244 161.830, 231.825 162.068, 234.806 161.509 L 238.223 160.868 237.635 165.184 C 235.790 178.737, 235.766 182.847, 237.496 188.349 C 239.167 193.661, 239.165 194.210, 237.458 200.517 C 235.954 206.074, 235.845 208.067, 236.775 213.063 C 237.656 217.804, 237.604 219.534, 236.518 221.627 C 235.486 223.618, 235.421 224.830, 236.251 226.653 C 238.201 230.932, 234.848 231.784, 218.918 231.052 C 210.475 230.664, 207.772 231.990, 208.192 236.316 L 208.500 239.500 242 239.500 L 275.500 239.500 275.810 236.813 C 276.353 232.116, 272.568 230.598, 262.211 231.359 C 249.961 232.259, 247.508 231.437, 247.471 226.425 C 247.455 224.266, 246.809 221.528, 246.036 220.339 C 244.893 218.582, 244.852 217.439, 245.815 214.224 C 247.040 210.133, 246.338 203.638, 244.009 197.520 C 243.108 195.153, 243.233 193.018, 244.617 187.142 C 246.114 180.786, 246.184 178.951, 245.115 174.122 C 244.430 171.030, 243.607 166.750, 243.285 164.610 L 242.699 160.721 246.183 161.375 C 249.200 161.940, 249.811 161.711, 250.746 159.659 C 252.159 156.558, 257.303 155.719, 266.322 157.118 C 270.099 157.704, 274.047 157.959, 275.095 157.685 C 277.668 157.013, 276.986 159.683, 271.061 173.500 C 268.623 179.183, 260 202.063, 260 202.847 C 260 203.346, 259.310 204.328, 258.467 205.028 C 257.104 206.159, 257.161 206.543, 258.981 208.480 C 267.590 217.644, 290.192 218.263, 298.881 209.573 L 301.295 207.159 299.119 202.529 C 297.921 199.982, 295.101 193.309, 292.851 187.699 C 290.601 182.090, 287.689 175.165, 286.380 172.312 C 285.071 169.458, 283.985 166.758, 283.966 166.312 C 283.947 165.865, 283.072 163.700, 282.020 161.500 C 280.127 157.540, 280.128 157.485, 282.099 155.962 C 284.676 153.970, 283.652 153.020, 279.633 153.672 C 277.553 154.010, 273.256 153.113, 267.281 151.095 C 257.195 147.688, 251.020 147.219, 246.601 149.524 C 243.032 151.385, 242.744 151.141, 244.137 147.434 C 245.068 144.956, 244.895 143.918, 243.021 140.750 C 240.253 136.070, 239.883 136.084, 237.140 140.965 M 107.470 145.049 C 104.999 149.047, 107.634 179.775, 111.581 192.992 C 113.389 199.045, 123.264 209.866, 133.750 217.283 C 139.609 221.427, 139.907 221.011, 137 212.740 C 135.900 209.611, 135 206.451, 135 205.719 C 135 204.987, 133.846 202.839, 132.436 200.944 C 124.961 190.905, 113.227 164.526, 110.608 151.876 C 109.021 144.208, 108.581 143.250, 107.470 145.049 M 371.552 147.250 C 371.340 147.938, 370.886 150.525, 370.542 153 C 369.065 163.640, 357.844 191.214, 350.355 202.604 C 348.510 205.410, 347 208.593, 347 209.675 C 347 210.758, 346.274 213.773, 345.388 216.376 C 343.222 222.730, 343.971 222.989, 350.190 218.037 C 369.161 202.933, 371.529 198.781, 374.016 176.260 C 375.736 160.684, 373.938 139.509, 371.552 147.250 M 201.483 164.500 C 201.070 165.600, 198.827 171.450, 196.498 177.500 C 194.169 183.550, 191.452 190.750, 190.460 193.500 C 189.467 196.250, 188.338 198.950, 187.950 199.500 C 187.562 200.050, 186.943 201.484, 186.575 202.687 L 185.905 204.874 202.844 204.947 L 219.783 205.021 211.547 185.260 C 207.017 174.392, 203.068 164.825, 202.772 164 C 202.345 162.812, 202.077 162.916, 201.483 164.500 M 277.468 166.147 C 276.769 169.329, 276.289 170.607, 272.583 179.151 C 271.713 181.159, 271 183.303, 271 183.915 C 271 184.527, 270.577 185.809, 270.059 186.764 C 268.676 189.315, 262.930 204.272, 263.237 204.521 C 264.441 205.497, 296 205.626, 295.998 204.656 C 295.996 204.020, 294.149 199.225, 291.893 194 C 289.636 188.775, 285.989 180, 283.788 174.500 C 279.012 162.569, 278.424 161.792, 277.468 166.147 M 100.952 194.250 C 109.977 220.600, 120.723 235.633, 135.475 242.550 C 145.397 247.202, 158 251.319, 158 249.908 C 158 247.960, 147.703 236.291, 142.892 232.787 C 129.377 222.943, 107.484 199.700, 101.797 189.158 C 98.588 183.210, 98.126 185.998, 100.952 194.250 M 380.169 191.669 C 374.231 203.309, 352.153 226.766, 338.367 236.083 C 337.194 236.876, 334.296 239.994, 331.927 243.012 C 329.558 246.030, 327.256 248.650, 326.810 248.833 C 324.469 249.797, 326.157 252.180, 328.750 251.573 C 352.652 245.974, 365.804 234.741, 376.255 211 C 382.414 197.009, 385.684 180.859, 380.169 191.669 M 106.612 231.250 C 116.949 248.944, 146.063 271.027, 161 272.503 C 171.271 273.518, 184.122 273.940, 186.302 273.333 C 188.302 272.777, 172.976 262.036, 170.070 261.958 C 169.207 261.934, 165.350 260.785, 161.500 259.403 C 157.650 258.022, 153.600 256.623, 152.500 256.295 C 144.667 253.962, 114.626 236.560, 110.433 231.926 C 108.491 229.780, 105.438 229.240, 106.612 231.250 M 371.500 235.620 C 362.552 243.533, 341.366 254.497, 324.500 259.943 C 311.802 264.043, 298.178 270.966, 297.234 273.798 C 296.817 275.050, 324.508 274.317, 330.360 272.921 C 340.029 270.614, 357.635 257.116, 369.770 242.704 C 378.909 231.852, 379.775 228.303, 371.500 235.620 M 129 269.693 C 129 272.435, 160.349 288.230, 171.460 291.087 C 184.922 294.548, 187.913 295.063, 191.500 294.538 C 197.508 293.658, 209.741 290.514, 216.465 288.122 C 219.746 286.955, 222.559 286, 222.715 286 C 225.530 286, 221.580 283.997, 217.750 283.482 C 214.863 283.094, 211.951 282.333, 211.280 281.791 C 210.610 281.249, 203.410 280.687, 195.280 280.542 C 172.895 280.142, 153.779 277.321, 139.502 272.310 C 129.446 268.780, 129 268.669, 129 269.693 M 346.500 273.606 C 333.038 278.330, 313.805 281.010, 290.276 281.438 C 271.091 281.788, 256.924 285.269, 265.741 287.466 C 267.258 287.845, 269.850 288.738, 271.500 289.451 C 281.706 293.865, 298.348 296.243, 305.647 294.331 C 308.866 293.488, 312.175 292.658, 313 292.487 C 320.569 290.918, 340.604 281.858, 350.250 275.643 C 358.788 270.142, 357.838 269.626, 346.500 273.606 M 240 287.983 C 230.992 293.503, 198.383 300.174, 179.750 300.310 C 172.188 300.364, 166 300.704, 166 301.064 C 166 301.920, 188.983 307.350, 189.676 306.658 C 189.967 306.366, 191.233 306.518, 192.488 306.995 C 199.367 309.611, 223.892 310.168, 229 307.824 C 241.535 302.074, 241.958 302.053, 254 306.606 C 264.879 310.719, 268.185 310.908, 288.043 308.552 C 300.213 307.109, 304.034 306.461, 314.750 304.027 C 322.426 302.283, 321.161 300.987, 312.250 301.465 C 297.191 302.273, 273.730 298.167, 254.500 291.358 C 241.914 286.902, 241.806 286.877, 240 287.983 M 58.638 337.877 C 61.427 340.475, 62.136 364.627, 59.454 365.656 C 56.391 366.831, 59.968 367.697, 68.546 367.857 C 76.787 368.011, 76.971 367.963, 77.599 365.461 C 78.381 362.345, 77.218 360.859, 75.875 363.258 C 74.693 365.372, 66.041 365.800, 65.935 363.750 C 65.900 363.063, 65.652 360.137, 65.385 357.250 L 64.899 352 68.843 352 C 71.651 352, 72.976 352.495, 73.447 353.722 C 74.249 355.812, 75.959 353.748, 75.985 350.658 C 75.998 349.058, 75.311 348.861, 70.750 349.158 L 65.500 349.500 65.500 344 L 65.500 338.500 69 338.817 C 70.925 338.992, 72.994 339.772, 73.599 340.552 C 74.975 342.326, 76 341.379, 76 338.333 C 76 336.049, 75.795 336, 66.311 336 C 56.786 336, 56.657 336.032, 58.638 337.877 M 88 337 C 88 337.550, 88.675 338, 89.500 338 C 90.655 338, 91.009 339.323, 91.039 343.750 C 91.061 346.913, 91.339 352.981, 91.658 357.236 C 92.148 363.788, 91.989 365.067, 90.619 365.593 C 87.333 366.854, 89.154 368, 94.441 368 C 99.894 368, 103.019 366.425, 98.765 365.821 C 96.787 365.541, 96.462 364.835, 96.198 360.250 C 95.747 352.424, 98.984 352.788, 107.319 361.500 C 113.055 367.496, 113.865 368, 117.769 368 C 122.542 368, 123.452 366.540, 119.208 365.692 C 117.579 365.366, 114.220 362.811, 111.145 359.560 L 105.874 353.986 107.806 351.243 C 112.144 345.083, 110.930 339.217, 104.881 337.108 C 100.901 335.721, 88 335.638, 88 337 M 133.154 337.694 C 118.935 344.700, 123.462 366.147, 139.673 368.578 C 159.674 371.578, 168.686 346.122, 150.541 337.880 C 145.523 335.600, 137.577 335.515, 133.154 337.694 M 170.260 338.400 C 172.970 340.456, 173.933 363.311, 171.427 366.081 C 170.472 367.136, 169.872 368.035, 170.095 368.078 C 170.318 368.120, 174.834 368.372, 180.131 368.638 L 189.762 369.121 190.799 366.146 C 191.788 363.309, 191.520 362, 189.950 362 C 189.556 362, 188.998 362.900, 188.710 364 C 188.097 366.347, 179.708 366.955, 178.346 364.751 C 176.613 361.947, 176.645 339, 178.382 339 C 179.272 339, 180 338.550, 180 338 C 180 337.446, 177.438 337.014, 174.250 337.032 C 169.237 337.060, 168.726 337.235, 170.260 338.400 M 214 337.640 C 214 337.992, 214.659 338.779, 215.464 339.390 C 217.320 340.798, 217.895 364.505, 216.115 366.285 C 214.014 368.386, 215.006 369, 220.500 369 C 225.933 369, 227.881 367.725, 224 366.710 C 222.246 366.252, 222 365.346, 222 359.344 L 221.999 352.500 231.250 352.665 L 240.500 352.831 240.796 359.429 C 241.030 364.648, 240.769 366.151, 239.546 366.621 C 238.696 366.947, 238 367.616, 238 368.107 C 238 369.339, 248.734 369.239, 249.500 368 C 249.840 367.450, 249.248 367, 248.184 367 C 245.175 367, 243.132 341.273, 246 339.500 C 248.342 338.053, 246.657 337, 242 337 C 236.806 337, 236.037 337.509, 238.388 339.390 C 239.151 340, 239.996 342.637, 240.265 345.250 L 240.754 350 231.377 350 L 222 350 222 344.500 C 222 341.475, 222.450 339, 223 339 C 223.550 339, 224 338.550, 224 338 C 224 337.450, 221.750 337, 219 337 C 216.250 337, 214 337.288, 214 337.640 M 257.673 337.660 C 257.310 338.023, 257.910 338.949, 259.006 339.717 C 260.752 340.940, 261 342.258, 261.002 350.307 C 261.004 364.395, 265.156 369.994, 275.602 369.998 C 285.103 370.002, 289.069 363.844, 288.470 350.022 C 288.178 343.275, 288.431 341.182, 289.707 339.772 C 291.212 338.108, 291.087 337.991, 287.655 337.850 C 285.645 337.767, 283.475 337.655, 282.833 337.600 C 280.697 337.417, 280.884 339.737, 283.052 340.303 C 286.742 341.268, 285.627 361.208, 281.694 364.588 C 273.312 371.793, 266.628 366.155, 266.156 351.482 C 265.935 344.625, 266.204 340.396, 266.906 339.694 C 267.508 339.092, 268 338.240, 268 337.800 C 268 336.842, 258.619 336.715, 257.673 337.660 M 97.250 338.727 C 96.426 339.017, 96 341.351, 96 345.583 C 96 350.043, 96.381 352.004, 97.250 352.014 C 97.938 352.021, 99.445 352.281, 100.601 352.591 C 104.944 353.757, 108.384 344.223, 104.717 341.180 C 102.795 339.585, 98.667 338.228, 97.250 338.727 M 301 339 C 301 339.550, 301.675 340, 302.500 340 C 303.359 340, 304.043 340.961, 304.100 342.250 C 304.981 362.147, 304.886 365.971, 303.477 367.380 C 301.196 369.661, 301.630 370, 306.833 370 C 312.524 370, 313.739 369.206, 310.994 367.283 C 309.417 366.179, 309 364.747, 309 360.443 C 309 353.870, 308.616 353.908, 314.774 359.875 C 323.004 367.849, 326.312 370, 330.344 370 C 334.871 370, 335.044 368.796, 330.750 367.176 C 328.962 366.501, 324.125 362.798, 320 358.947 L 312.500 351.946 318 346.927 C 321.025 344.167, 324.962 341.248, 326.750 340.441 C 331.180 338.440, 330.854 338, 324.941 338 C 321.760 338, 320.116 338.378, 320.512 339.019 C 320.999 339.807, 310.500 351, 309.275 351 C 309.124 351, 309 348.525, 309 345.500 C 309 342.475, 309.450 340, 310 340 C 310.550 340, 311 339.550, 311 339 C 311 338.450, 308.750 338, 306 338 C 303.250 338, 301 338.450, 301 339 M 336 338.893 C 336 339.384, 336.624 340.025, 337.387 340.318 C 338.420 340.715, 338.870 343.672, 339.153 351.922 C 339.616 365.466, 341.820 368.822, 351.026 370.003 C 362.191 371.436, 366.274 366.499, 366.443 351.368 C 366.526 343.885, 366.932 340.523, 367.787 340.238 C 370.232 339.423, 367.787 338, 363.941 338 C 359.946 338, 358.687 339.282, 361.588 340.396 C 364.762 341.614, 363.185 362.588, 359.694 365.589 C 355.365 369.309, 347.665 367.979, 345.030 363.055 C 343.687 360.546, 343.660 340, 345 340 C 345.550 340, 346 339.550, 346 339 C 346 338.450, 343.750 338, 341 338 C 338.250 338, 336 338.402, 336 338.893 M 380.733 338.600 C 380.340 338.994, 380.553 339.961, 381.207 340.750 C 383.375 343.362, 383.590 365.691, 381.469 368.034 C 379.719 369.968, 379.786 369.999, 385.595 369.948 C 391.255 369.897, 391.407 369.830, 389.250 368.326 C 387.323 366.981, 387 365.857, 387 360.487 L 387 354.218 392.250 359.449 C 400.542 367.709, 404.136 370.012, 408.594 369.919 L 412.500 369.838 409.643 368.575 C 406.119 367.018, 390.997 354.025, 391.007 352.563 C 391.016 351.285, 402.341 341.799, 405.072 340.782 C 408.105 339.653, 407.346 339, 403 339 C 400.615 339, 399 339.472, 399 340.169 C 399 340.811, 396.413 343.711, 393.250 346.612 L 387.500 351.886 387.195 346.286 C 386.989 342.488, 387.311 340.419, 388.195 339.858 C 389.138 339.261, 388.944 339.023, 387.500 339.002 C 386.400 338.986, 384.589 338.728, 383.475 338.428 C 382.361 338.129, 381.127 338.206, 380.733 338.600 M 133.250 341.584 C 127.066 346.458, 129.315 360.526, 136.906 364.451 C 150.741 371.606, 162.348 353.039, 150.709 342.372 C 145.828 337.899, 138.354 337.561, 133.250 341.584 M 150.878 386.353 C 151.529 387.138, 152.035 391.885, 152.082 397.648 L 152.162 407.590 157.488 407.535 C 166.330 407.442, 170.394 400.815, 164.466 396.152 C 163.073 395.056, 162.344 393.906, 162.846 393.595 C 164.790 392.394, 164.832 388.832, 162.926 386.926 C 160.526 384.526, 148.903 383.974, 150.878 386.353 M 176 386 C 176 386.550, 176.402 387, 176.894 387 C 177.386 387, 177.954 390.644, 178.156 395.097 C 178.997 413.608, 198 413.520, 198 395.005 C 198 391.242, 198.273 387.452, 198.607 386.582 C 199.081 385.346, 198.526 385, 196.072 385 C 193.313 385, 193.052 385.228, 193.930 386.869 C 195.757 390.283, 194.776 402.960, 192.559 404.581 C 186.106 409.299, 181.752 404.619, 182.179 393.426 L 182.500 384.995 179.250 384.998 C 177.463 384.999, 176 385.450, 176 386 M 210 386 C 210 386.550, 210.491 387, 211.091 387 C 211.831 387, 212.072 390.375, 211.841 397.501 L 211.500 408.002 214.950 408.001 C 217.633 408, 218.133 407.733, 217.200 406.800 C 216.540 406.140, 216 404.115, 216 402.300 C 216 397.622, 218.384 398.019, 223.209 403.500 C 226.753 407.526, 227.609 407.991, 231.335 407.918 L 235.500 407.837 232.500 406.502 C 226.176 403.688, 222.672 398.734, 224.613 395.351 C 226.781 391.574, 225.885 387.724, 222.477 386.171 C 219.340 384.742, 210 384.614, 210 386 M 244.314 386.950 C 240.289 389.404, 239 391.818, 239 396.899 C 239 411.172, 260.956 413.045, 264.102 399.042 C 266.382 388.893, 253.769 381.185, 244.314 386.950 M 278.329 386.185 C 273.530 388.506, 274.487 394.021, 280.390 398.065 C 284.378 400.797, 285.453 403.404, 283.429 405.429 C 281.828 407.029, 278.081 406.375, 277.308 404.361 C 276.376 401.931, 274.858 402.923, 275.184 405.750 C 275.482 408.343, 275.779 408.496, 280.383 408.429 C 289.488 408.296, 290.671 402.491, 282.965 395.751 C 279.375 392.610, 278.114 390.866, 278.572 389.673 C 279.267 387.862, 285 387.261, 285 389 C 285 389.550, 285.450 390, 286 390 C 286.550 390, 287 389.148, 287 388.107 C 287 385.080, 282.621 384.110, 278.329 386.185 M 297.753 387.250 C 298.302 387.938, 298.966 392, 299.227 396.278 C 299.843 406.338, 301.934 409, 309.222 409 C 316.660 409, 319 405.993, 319 396.436 C 319 392.436, 319.273 388.452, 319.607 387.582 C 320.080 386.349, 319.529 386, 317.107 386 C 315.398 386, 314 386.450, 314 387 C 314 387.550, 314.450 388, 315 388 C 317.136 388, 316.180 402.820, 313.896 405.104 C 308.083 410.917, 302.737 405.504, 303.177 394.250 L 303.500 386 300.128 386 C 297.564 386, 296.995 386.300, 297.753 387.250 M 156 390.570 C 156 393.699, 156.277 394.100, 158.250 393.820 C 162.413 393.228, 161.508 387.067, 157.250 387.015 C 156.481 387.006, 156 388.372, 156 390.570 M 215.758 388.250 C 214.708 391.128, 216.204 397, 217.987 397 C 221.739 397, 223.710 391.710, 220.977 388.977 C 218.728 386.728, 216.430 386.408, 215.758 388.250 M 247.180 388.566 C 241.461 390.971, 241.725 403.146, 247.545 405.379 C 254.728 408.135, 260.333 404.673, 260.333 397.479 C 260.333 389.882, 254.099 385.657, 247.180 388.566 M 30.171 390.505 C 30.525 390.858, 41.768 391.787, 55.157 392.570 C 90.216 394.619, 117.646 397.710, 131 401.117 C 132.162 401.414, 132.567 400.344, 132.798 396.371 L 133.096 391.243 123.298 390.797 C 107.044 390.058, 29.481 389.814, 30.171 390.505 M 338.698 392.636 C 337.742 393.591, 337.812 401.766, 338.781 402.365 C 339.211 402.630, 342.473 402.242, 346.031 401.501 C 359.585 398.681, 404.447 395.138, 429.500 394.910 C 436.100 394.850, 442.625 394.440, 444 394 C 445.375 393.560, 423.024 393.155, 394.332 393.100 C 365.639 393.045, 341.541 392.761, 340.780 392.469 C 340.018 392.177, 339.082 392.252, 338.698 392.636 M 156 400.563 C 156 405.109, 156.012 405.126, 159.250 404.813 C 163.129 404.439, 164.214 400.999, 161.425 397.918 C 158.195 394.348, 156 395.418, 156 400.563" stroke="none" fill="#ffffff" fill-rule="evenodd"/>
</svg>
