<?xml version="1.0" standalone="no"?>
<!DOCTYPE svg PUBLIC "-//W3C//DTD SVG 20010904//EN"
 "http://www.w3.org/TR/2001/REC-SVG-20010904/DTD/svg10.dtd">
<svg version="1.0" xmlns="http://www.w3.org/2000/svg"
 width="479.000000pt" height="478.000000pt" viewBox="0 0 479.000000 478.000000"
 preserveAspectRatio="xMidYMid meet">

<g transform="translate(0.000000,478.000000) scale(0.100000,-0.100000)"
fill="#ffffff" stroke="none">
<path d="M2040 4063 c-25 -20 -81 -72 -124 -115 -44 -43 -83 -78 -87 -78 -4 0
-11 -9 -14 -20 -4 -11 -16 -31 -28 -45 -39 -42 -53 -61 -73 -93 -10 -18 -23
-32 -29 -32 -7 0 -17 -10 -24 -22 -7 -13 -28 -36 -47 -51 l-34 -29 0 24 c0 37
50 189 73 221 25 36 163 147 183 147 8 0 14 4 14 10 0 8 215 120 230 120 3 0
-15 -17 -40 -37z m766 -15 c3 -4 30 -19 60 -33 30 -15 52 -31 49 -36 -4 -5 2
-9 13 -9 10 0 30 -9 43 -20 13 -11 29 -23 34 -27 6 -5 36 -27 67 -51 51 -39
98 -107 98 -142 0 -6 6 -21 14 -33 16 -26 39 -117 32 -125 -3 -2 -18 8 -33 24
-15 16 -39 38 -53 49 -14 11 -46 49 -71 85 -26 36 -56 74 -68 84 -11 11 -21
25 -21 32 0 7 -4 14 -9 16 -4 2 -55 47 -113 101 -58 53 -113 104 -124 112 -14
10 -7 10 28 -3 26 -10 50 -21 54 -24z m-526 5 c-25 -14 -60 -39 -78 -55 -18
-15 -36 -28 -40 -28 -4 0 -30 -20 -57 -44 -27 -25 -60 -50 -74 -57 -14 -7 -32
-18 -39 -23 -7 -5 -37 -19 -66 -31 l-53 -22 18 32 c10 17 49 63 86 103 71 75
84 81 233 128 103 31 126 30 70 -3z m258 11 c32 -8 66 -19 77 -24 11 -5 43
-16 72 -25 43 -13 63 -29 115 -86 35 -39 67 -78 72 -87 5 -9 16 -23 23 -31 17
-16 9 -28 -9 -14 -7 6 -35 18 -63 27 -30 10 -70 34 -99 61 -26 25 -50 45 -52
45 -2 0 -23 15 -47 33 -24 17 -54 39 -67 47 -12 8 -33 23 -45 33 -13 9 -28 17
-33 17 -6 0 -14 5 -17 10 -9 14 8 13 73 -6z m-53 -120 c50 -32 62 -44 42 -39
-16 3 -85 6 -154 6 -69 1 -121 5 -116 9 19 19 120 69 138 70 11 0 52 -21 90
-46z m-844 -26 c-67 -102 -138 -282 -177 -448 -10 -41 -26 -87 -36 -101 -9
-15 -22 -39 -28 -54 -16 -43 -27 -20 -39 88 -17 151 -10 174 116 357 34 49
167 190 180 190 3 0 -5 -15 -16 -32z m1590 -75 c85 -89 130 -148 184 -246 l37
-68 -6 -118 c-8 -163 -11 -167 -57 -81 -22 39 -39 77 -39 84 0 16 -67 222 -85
261 -7 17 -21 50 -31 75 -9 25 -22 52 -28 60 -6 8 -17 26 -25 40 -8 14 -21 35
-29 48 -29 45 6 20 79 -55z m-881 -39 c0 -2 -15 -4 -32 -4 -23 0 -29 3 -19 9
12 8 51 4 51 -5z m100 6 c11 -7 4 -10 -27 -10 -24 0 -43 5 -43 10 0 13 50 13
70 0z m73 -7 c-7 -2 -21 -2 -30 0 -10 3 -4 5 12 5 17 0 24 -2 18 -5z m-323
-17 c-48 -13 -64 -11 -40 4 8 6 31 9 50 9 35 -1 35 -1 -10 -13z m400 -2 c0 -2
-7 -4 -15 -4 -8 0 -15 4 -15 10 0 5 7 7 15 4 8 -4 15 -8 15 -10z m37 0 c-3 -3
-12 -4 -19 -1 -8 3 -5 6 6 6 11 1 17 -2 13 -5z m53 -14 c13 -9 13 -10 0 -10
-8 0 -22 5 -30 10 -13 9 -13 10 0 10 8 0 22 -5 30 -10z m-645 -20 c-3 -5 -11
-10 -16 -10 -6 0 -7 5 -4 10 3 6 11 10 16 10 6 0 7 -4 4 -10z m743 -9 c9 -4
44 -21 77 -36 228 -103 415 -306 497 -538 41 -116 49 -167 49 -292 -1 -155
-38 -283 -126 -435 -26 -46 -150 -188 -177 -205 -48 -28 -32 5 38 80 114 121
180 238 216 380 27 103 28 269 3 381 -22 103 -88 240 -161 334 -79 103 -224
227 -315 268 -126 58 -152 72 -136 72 9 0 25 -4 35 -9z m-813 -21 c-3 -5 -11
-10 -16 -10 -6 0 -7 5 -4 10 3 6 11 10 16 10 6 0 7 -4 4 -10z m-55 -25 c-7 -8
-20 -15 -28 -15 -13 0 -12 3 4 15 25 19 40 19 24 0z m-50 -18 c0 -12 -73 -67
-89 -67 -12 0 -156 -152 -203 -215 -52 -68 -113 -214 -131 -308 -18 -102 -13
-270 11 -358 33 -119 94 -239 165 -324 27 -33 35 -55 18 -55 -28 0 -126 148
-172 260 -62 154 -75 352 -34 524 16 67 83 216 111 247 8 8 14 20 14 25 0 23
121 145 209 211 53 40 97 73 99 73 1 0 2 -6 2 -13z m1637 -44 c7 -16 23 -53
37 -85 40 -90 66 -176 81 -270 13 -82 13 -90 -6 -144 -25 -70 -70 -161 -97
-193 l-19 -25 -7 75 c-4 41 -2 106 3 144 20 134 12 424 -14 506 -10 29 9 22
22 -8z m-2218 -50 c0 -25 -1 -25 -8 -8 -5 11 -7 23 -4 28 8 14 13 7 12 -20z
m4 -200 c3 -93 12 -195 19 -228 13 -58 12 -215 -1 -215 -12 0 -83 130 -101
185 -7 22 -16 44 -21 50 -11 12 -12 52 0 59 4 3 6 29 3 57 -3 31 -1 50 4 46 6
-3 8 10 6 30 -4 30 -2 35 12 30 18 -7 21 4 5 20 -15 15 18 113 37 106 8 -3 14
1 14 11 0 9 4 16 9 16 4 0 11 -75 14 -167z m1147 -79 c-6 -15 -9 -28 -7 -30 1
-2 23 4 47 12 54 19 110 12 194 -22 32 -13 74 -26 92 -30 22 -4 34 -12 34 -23
0 -19 21 -81 56 -163 14 -33 23 -63 20 -66 -3 -3 -11 8 -17 24 -44 123 -72
167 -83 132 -10 -31 -78 -214 -111 -298 -19 -49 -35 -96 -35 -103 0 -21 320
-31 336 -11 16 20 36 -3 23 -27 -28 -53 -182 -89 -274 -65 -77 20 -144 68
-125 91 4 5 41 93 80 195 100 257 110 283 107 286 -1 2 -58 4 -125 6 -118 3
-124 2 -142 -19 -11 -15 -29 -23 -47 -23 -17 0 -32 -2 -35 -5 -3 -3 4 -48 15
-101 19 -94 19 -98 1 -156 -16 -54 -16 -64 -3 -106 7 -26 15 -87 16 -137 6
-213 2 -207 154 -203 118 3 142 -6 137 -51 l-3 -26 -324 3 c-247 1 -327 5
-333 15 -11 17 -10 20 6 43 13 17 25 19 119 16 57 -1 116 2 131 8 24 9 27 14
21 41 -4 19 -2 41 5 55 10 18 10 36 2 80 -10 47 -9 68 5 125 15 66 15 73 -2
143 -16 65 -17 83 -7 139 19 103 17 117 -18 117 -18 0 -39 10 -55 26 -26 25
-26 26 -138 19 -62 -4 -114 -9 -115 -11 -5 -4 25 -80 113 -289 42 -99 79 -188
82 -197 7 -23 -59 -64 -126 -79 -99 -21 -228 7 -275 59 -18 21 -18 22 4 74 12
29 38 93 56 143 18 49 51 137 74 195 37 97 39 106 23 118 -15 10 -13 12 15 12
17 0 74 14 125 30 103 33 172 38 203 15 29 -22 47 -20 34 4 -15 29 -12 52 11
90 l21 34 24 -41 c20 -33 22 -45 14 -68z m1295 -218 c-7 -127 -30 -247 -58
-303 -24 -46 -209 -214 -222 -201 -3 2 0 18 5 34 5 16 15 49 23 74 7 27 18 44
26 42 7 -1 10 2 7 7 -3 5 12 39 33 76 22 37 54 104 72 149 17 44 38 95 45 111
16 35 53 178 55 209 1 12 5 1 11 -24 5 -25 6 -103 3 -174z m-2601 42 c9 -21
13 -38 10 -38 -4 0 0 -8 8 -17 9 -10 19 -29 23 -43 11 -36 62 -133 119 -225
27 -44 55 -102 63 -130 8 -27 17 -59 20 -69 6 -19 6 -19 -27 0 -19 10 -76 60
-127 110 -75 74 -93 98 -93 121 0 16 -4 33 -9 38 -9 10 -36 157 -40 220 -4 58
-5 71 -2 130 l2 60 18 -60 c10 -33 26 -77 35 -97z m-63 -333 c57 -78 246 -267
329 -330 36 -27 76 -61 90 -76 43 -48 73 -90 67 -96 -9 -8 -103 25 -207 74
-90 42 -98 48 -150 118 -30 41 -68 97 -83 124 -30 53 -107 236 -107 254 0 13
2 11 61 -68z m2725 3 c-8 -42 -54 -155 -80 -197 -14 -22 -26 -44 -27 -48 0 -5
-24 -41 -53 -82 -45 -64 -62 -79 -122 -110 -103 -52 -287 -111 -224 -71 8 6
11 10 7 10 -10 0 73 110 83 110 9 0 135 101 172 138 14 15 56 55 92 90 36 34
66 65 66 68 0 7 80 114 86 114 2 0 2 -10 0 -22z m-2399 -528 c116 -56 120 -58
203 -88 69 -26 103 -36 111 -34 3 0 19 -12 34 -28 15 -16 32 -27 39 -24 14 5
63 -32 54 -42 -4 -4 -13 -3 -20 3 -7 5 -24 7 -38 5 -47 -9 -155 -2 -159 9 -2
8 -6 8 -10 1 -4 -7 -22 -7 -54 -1 -90 16 -301 173 -401 297 -31 38 -56 72 -56
75 0 3 42 -23 94 -58 52 -35 143 -87 203 -115z m2337 145 c-4 -8 -9 -15 -14
-15 -4 0 -11 -9 -16 -20 -18 -40 -181 -192 -268 -252 -79 -53 -98 -61 -160
-70 -39 -5 -88 -8 -108 -6 -21 2 -38 0 -38 -4 0 -13 -18 -9 -34 8 -15 14 -16
14 -16 0 0 -20 -24 -21 -40 -1 -7 9 -11 17 -9 18 48 33 92 56 124 67 163 51
398 155 475 210 16 11 30 20 33 20 3 0 21 14 39 30 37 34 39 35 32 15z m-2024
-122 c0 -7 6 -13 14 -13 20 0 66 -39 66 -57 0 -21 -11 -15 -74 41 -34 29 -56
57 -56 69 0 20 1 20 25 -3 14 -13 25 -29 25 -37z m118 -97 c3 -12 -1 -17 -10
-14 -7 3 -15 13 -16 22 -3 12 1 17 10 14 7 -3 15 -13 16 -22z m1232 9 c0 -15
-38 -41 -47 -32 -2 3 0 15 7 26 12 24 40 28 40 6z m-60 -39 c0 -8 -13 -20 -30
-28 -16 -7 -30 -16 -30 -20 0 -5 -8 -8 -18 -8 -10 0 -27 -7 -38 -15 -25 -19
-31 -18 -38 1 -5 13 -2 15 13 11 12 -3 22 1 25 9 3 8 12 14 19 14 8 0 20 7 27
15 7 8 21 15 31 15 11 0 19 5 19 10 0 6 5 10 10 10 6 0 10 -6 10 -14z m-1065
-26 c3 -5 1 -10 -4 -10 -6 0 -11 5 -11 10 0 6 2 10 4 10 3 0 8 -4 11 -10z m65
-45 c0 -8 -2 -15 -4 -15 -2 0 -6 7 -10 15 -3 8 -1 15 4 15 6 0 10 -7 10 -15z
m130 -40 c0 -16 -9 -19 -35 -9 -13 5 -14 8 -3 15 20 13 38 11 38 -6z m605 -6
c12 -19 -5 -23 -22 -6 -16 16 -16 17 -1 17 9 0 20 -5 23 -11z m-1311 -14 c48
-16 119 -33 176 -42 19 -3 40 -12 47 -20 7 -9 13 -11 18 -4 10 17 68 12 93 -8
12 -11 22 -29 22 -40 0 -12 5 -21 11 -21 7 0 9 12 7 30 -6 39 9 49 21 16 12
-29 10 -67 -2 -59 -4 3 -14 -3 -21 -12 -11 -15 -16 -16 -37 -4 -13 7 -32 12
-42 10 -19 -3 -42 43 -33 66 3 7 0 13 -6 13 -6 0 -8 -11 -4 -30 4 -24 2 -30
-12 -30 -10 0 -27 7 -38 15 -10 8 -27 15 -37 15 -10 0 -50 17 -89 38 -39 20
-86 45 -104 55 -58 30 -42 36 30 12z m2061 -11 c-11 -8 -62 -36 -113 -62 -72
-37 -94 -44 -101 -34 -6 11 -9 9 -13 -5 -3 -12 -21 -24 -49 -32 -24 -7 -52
-15 -61 -17 -12 -4 -18 0 -18 10 0 8 -12 28 -26 45 -17 20 -21 31 -12 32 7 0
32 3 56 5 32 4 42 2 42 -9 0 -8 7 -20 15 -27 12 -10 15 -10 15 2 0 8 -5 19
-11 25 -9 9 -5 13 17 18 16 3 47 10 69 15 22 5 51 11 65 14 14 3 48 12 75 20
64 19 75 19 50 0z m-1615 -87 c0 -31 9 -38 30 -27 12 6 16 17 13 30 -6 24 12
27 21 3 6 -15 8 -14 20 2 18 25 39 10 31 -22 -3 -14 -1 -31 5 -38 9 -11 7 -12
-10 -8 -12 3 -24 12 -27 20 -4 10 -9 11 -19 2 -7 -6 -18 -7 -25 -3 -7 4 -10 2
-7 -7 3 -8 11 -13 17 -11 6 1 11 -5 11 -13 0 -18 -31 -20 -48 -3 -6 6 -15 8
-19 4 -4 -4 -1 -11 7 -16 8 -6 10 -10 4 -10 -5 0 -18 6 -27 13 -14 10 -15 19
-6 60 11 49 29 64 29 24z m30 13 c0 -5 -2 -10 -4 -10 -3 0 -8 5 -11 10 -3 6
-1 10 4 10 6 0 11 -4 11 -10z m117 -12 c-3 -8 -6 -5 -6 6 -1 11 2 17 5 13 3
-3 4 -12 1 -19z m923 -18 c0 -15 4 -30 8 -32 12 -4 25 -58 14 -58 -19 0 -50
32 -55 57 -3 15 -8 35 -12 45 -4 11 -1 18 12 20 26 6 33 0 33 -32z m140 18
c29 -45 40 -71 34 -77 -4 -3 -9 0 -11 7 -7 19 -37 14 -51 -9 -8 -12 -19 -18
-28 -15 -8 3 -14 0 -15 -7 -1 -16 -37 83 -38 106 -1 14 8 17 47 17 38 0 50 -4
62 -22z m-290 -3 c7 -9 10 -18 7 -21 -10 -11 -37 5 -37 21 0 19 14 19 30 0z
m-655 -34 c-6 -5 -25 10 -25 20 0 5 6 4 14 -3 8 -7 12 -15 11 -17z m745 19 c0
-5 -5 -10 -11 -10 -5 0 -7 5 -4 10 3 6 8 10 11 10 2 0 4 -4 4 -10z m-10 -41
c17 -31 7 -33 -20 -4 -19 20 -20 25 -7 25 9 0 21 -9 27 -21z m-530 -78 c0 -11
-4 -23 -10 -26 -6 -4 -10 5 -10 19 0 14 5 26 10 26 6 0 10 -9 10 -19z m-173
-6 c0 -8 -4 -15 -9 -15 -4 0 -8 7 -8 15 0 8 4 15 8 15 5 0 9 -7 9 -15z m-81
-27 c-1 -13 2 -32 6 -43 9 -20 9 -20 -6 -1 -17 21 -22 66 -7 66 4 0 7 -10 7
-22z m44 12 c0 -5 -2 -10 -4 -10 -3 0 -8 5 -11 10 -3 6 -1 10 4 10 6 0 11 -4
11 -10z m637 -12 c-3 -8 -6 -5 -6 6 -1 11 2 17 5 13 3 -3 4 -12 1 -19z m-744
-16 c17 3 26 -2 35 -20 9 -20 9 -23 -5 -18 -9 4 -20 1 -25 -6 -6 -10 -15 -4
-34 20 -19 24 -31 31 -45 27 -27 -9 -24 4 4 14 16 7 25 5 34 -6 7 -9 22 -14
36 -11z m-225 -2 c3 -9 -1 -11 -12 -7 -10 4 -22 7 -27 7 -6 0 -8 4 -5 9 8 13
39 7 44 -9z m37 -10 c-5 -8 -11 -8 -17 -2 -6 6 -7 16 -3 22 5 8 11 8 17 2 6
-6 7 -16 3 -22z m55 -1 c0 -24 -16 -25 -30 0 -7 14 -6 21 3 24 18 6 27 -2 27
-24z m40 -1 c0 -5 -4 -8 -10 -8 -5 0 -10 10 -10 23 0 18 2 19 10 7 5 -8 10
-18 10 -22z m285 12 c3 -5 -1 -10 -10 -10 -9 0 -13 5 -10 10 3 6 8 10 10 10 2
0 7 -4 10 -10z m729 -7 c6 -14 9 -15 15 -4 7 10 9 10 14 -2 4 -10 -2 -17 -16
-21 -32 -8 -39 -7 -32 4 4 6 1 17 -5 25 -10 12 -9 15 3 15 8 0 18 -8 21 -17z
m-649 -3 c3 -5 2 -10 -4 -10 -5 0 -13 5 -16 10 -3 6 -2 10 4 10 5 0 13 -4 16
-10z m524 -30 c0 -10 -3 -8 -9 5 -12 27 -12 43 0 25 5 -8 9 -22 9 -30z m209
21 c3 -8 -1 -12 -9 -9 -7 2 -15 10 -17 17 -3 8 1 12 9 9 7 -2 15 -10 17 -17z
m52 9 c-19 -13 -30 -13 -30 0 0 6 10 10 23 10 18 0 19 -2 7 -10z m-293 -46
c-9 -9 -28 6 -21 18 4 6 10 6 17 -1 6 -6 8 -13 4 -17z m73 16 c0 -5 -2 -10 -4
-10 -3 0 -8 5 -11 10 -3 6 -1 10 4 10 6 0 11 -4 11 -10z m-1339 -321 c105 -53
105 -208 -1 -268 -35 -19 -52 -23 -106 -19 -71 4 -104 23 -141 78 -39 57 -27
146 25 193 51 46 150 53 223 16z m-761 13 c0 -16 -13 -22 -26 -11 -14 11 -91
9 -86 -3 1 -5 2 -30 2 -58 l0 -50 50 0 c33 0 50 -4 50 -12 0 -9 -15 -12 -50
-10 l-50 4 0 -60 c0 -61 8 -76 45 -85 11 -2 -3 -5 -32 -6 l-52 -1 -3 150 -3
150 78 0 c42 0 77 -4 77 -8z m213 1 c-21 -4 -23 -10 -23 -73 0 -73 5 -80 59
-80 38 0 51 17 51 66 0 35 -5 47 -32 69 l-32 27 35 -6 c66 -10 89 -76 45 -131
l-24 -29 44 -51 c24 -28 54 -57 68 -65 14 -7 23 -17 20 -22 -8 -13 -57 3 -79
27 -11 12 -37 41 -58 63 -21 23 -46 42 -56 42 -27 0 -43 -24 -36 -54 17 -81
17 -76 -12 -76 l-28 0 0 150 0 150 40 -1 c23 -1 30 -4 18 -6z m798 -123 c-1
-69 1 -134 5 -143 5 -13 18 -17 54 -17 27 0 52 5 55 10 11 18 23 11 18 -10 -5
-18 -14 -20 -92 -20 l-86 0 0 155 0 156 24 -3 c23 -3 23 -3 22 -128z m442 60
l-6 -60 87 -1 c47 -1 92 -2 99 -3 8 -1 12 17 11 62 0 58 1 62 23 62 23 0 23 0
23 -139 0 -92 4 -142 11 -147 14 -8 -8 -24 -36 -24 -18 0 -20 7 -20 82 l0 83
-91 3 c-69 2 -93 -1 -97 -11 -3 -7 -1 -44 3 -82 4 -39 7 -71 6 -71 -1 -1 -16
1 -34 3 -26 4 -30 8 -21 19 11 13 6 255 -6 274 -5 8 33 19 47 13 3 -2 4 -30 1
-63z m445 -51 c2 -133 12 -159 68 -178 34 -12 44 -12 69 0 48 23 56 51 53 177
-3 112 -3 112 21 112 16 0 21 -4 18 -15 -4 -8 -7 -63 -8 -122 -1 -107 -2 -108
-34 -140 -30 -30 -39 -33 -93 -33 -106 0 -139 46 -141 199 -1 52 -4 98 -7 103
-3 4 8 8 23 8 l29 0 2 -111z m500 35 c47 49 71 66 90 66 l26 0 -24 -17 c-14
-9 -48 -38 -76 -64 l-52 -48 73 -69 c39 -38 80 -74 91 -80 25 -14 12 -26 -20
-18 -27 7 -26 6 -115 91 l-63 60 4 -77 c3 -78 3 -78 -22 -78 l-25 0 0 150 c0
142 1 149 20 152 18 3 21 -4 25 -66 l5 -68 63 66z m276 -10 c-4 -115 8 -170
41 -196 16 -13 38 -26 49 -30 13 -5 8 -6 -13 -3 -84 12 -108 51 -112 175 -2
52 -7 103 -11 113 -7 14 -4 17 20 17 l28 0 -2 -76z m226 -28 c0 -59 -4 -108
-10 -111 -6 -4 -10 23 -10 73 0 44 -3 94 -6 111 -5 24 -3 31 10 31 14 0 16
-15 16 -104z m197 92 c4 -7 6 -39 4 -70 -3 -54 8 -75 24 -48 3 6 12 10 18 10
8 0 8 -3 -1 -9 -10 -6 -2 -17 28 -44 22 -20 40 -39 40 -42 0 -15 -29 0 -59 30
-42 43 -51 44 -51 3 0 -22 -3 -29 -10 -22 -15 15 -25 204 -11 204 5 0 13 -6
18 -12z m3 -242 c0 -19 -5 -38 -11 -41 -15 -10 -17 -4 -11 38 5 47 22 49 22 3z
m140 10 c14 -18 14 -18 -7 -6 -12 8 -19 18 -16 23 3 4 6 7 7 5 1 -2 8 -12 16
-22z m-366 -8 c-9 -28 -33 -47 -59 -48 -16 0 -13 5 13 20 18 11 35 27 38 35 9
24 16 17 8 -7z m-2864 -13 c0 -9 -9 -15 -22 -15 -21 0 -21 0 -2 15 24 18 24
18 24 0z m3280 -20 c11 -13 10 -14 -4 -9 -9 3 -16 10 -16 15 0 13 6 11 20 -6z
m-2190 -145 c0 -5 -4 -10 -10 -10 -5 0 -10 5 -10 10 0 6 5 10 10 10 6 0 10 -4
10 -10z m65 0 c3 -5 -1 -10 -9 -10 -9 0 -16 5 -16 10 0 6 4 10 9 10 6 0 13 -4
16 -10z m-372 -64 c-3 -18 0 -43 6 -55 8 -14 8 -21 1 -21 -13 0 -13 -51 0 -84
8 -23 7 -26 -10 -26 -18 0 -20 7 -20 88 0 48 -3 97 -6 110 -5 17 -2 22 14 22
18 0 20 -5 15 -34z m252 26 c6 -4 11 -43 12 -87 2 -73 4 -82 28 -102 19 -17
22 -23 10 -23 -50 0 -70 42 -74 158 -2 60 2 70 24 54z m-171 -24 c8 -13 7 -23
-2 -39 -12 -18 -11 -24 7 -43 25 -26 27 -68 5 -87 -13 -11 -14 -9 -9 14 8 32
-17 77 -43 77 -16 1 -16 1 1 14 9 7 17 25 17 39 0 14 -8 31 -17 37 -16 9 -15
10 6 8 13 -2 29 -11 35 -20z m339 -50 c-1 -40 -2 -79 -2 -85 -1 -16 -37 -53
-51 -53 -6 0 -2 10 10 22 17 18 20 35 20 105 0 60 4 83 13 83 9 0 11 -20 10
-72z m179 27 c-2 -25 1 -52 7 -59 9 -10 9 -16 1 -21 -6 -4 -10 -26 -8 -48 2
-30 -1 -42 -10 -42 -10 0 -15 27 -18 108 -4 98 -3 107 13 107 15 0 18 -7 15
-45z m73 39 c28 -11 37 -52 19 -84 -16 -26 -16 -29 5 -59 12 -17 32 -37 43
-46 12 -8 19 -18 15 -21 -11 -12 -50 15 -84 57 -32 40 -32 40 -13 59 11 11 20
25 20 31 0 21 -22 50 -43 59 l-22 9 22 0 c12 1 29 -2 38 -5z m388 -35 c38 -41
37 -97 -1 -140 -54 -60 -171 -48 -207 21 -19 37 -19 63 0 100 15 30 52 56 63
46 3 -3 0 -6 -6 -6 -6 0 -19 -14 -28 -31 -31 -61 7 -143 72 -155 61 -11 104
28 104 94 0 33 -35 92 -54 92 -8 0 -18 5 -22 11 -15 25 52 -2 79 -32z m249 26
c-2 -5 -9 -8 -15 -6 -28 9 -50 5 -61 -12 -9 -16 -4 -24 37 -59 39 -33 47 -46
47 -74 0 -23 -6 -37 -19 -44 -26 -13 -88 -13 -96 1 -10 16 4 24 17 11 15 -15
51 -15 66 0 22 22 13 43 -33 81 -73 61 -58 120 30 114 17 -1 28 -6 27 -12z
m166 -75 c2 -70 7 -89 24 -107 16 -18 18 -23 6 -23 -8 0 -24 10 -35 23 -16 17
-22 41 -26 110 -6 80 -4 88 11 85 14 -3 17 -17 20 -88z m158 64 c-3 -9 -6 -46
-6 -83 0 -54 -4 -72 -20 -89 -12 -12 -26 -22 -31 -22 -6 0 -1 8 11 18 21 17
23 27 21 105 -1 73 2 87 15 87 11 0 14 -5 10 -16z m-1877 -42 c4 -7 8 -25 7
-40 -1 -21 -6 -26 -21 -25 -11 2 -98 14 -193 28 -94 14 -219 28 -277 32 -58 3
-105 10 -105 16 0 5 111 8 290 6 227 -3 293 -7 299 -17z m2666 -23 c-57 -11
-173 -11 -180 1 -4 6 34 10 107 9 87 -1 104 -3 73 -10z"/>
<path d="M2038 3963 c7 -3 16 -2 19 1 4 3 -2 6 -13 5 -11 0 -14 -3 -6 -6z"/>
<path d="M1460 3618 c0 -12 1 -19 3 -17 1 2 9 12 16 22 12 14 11 17 -3 17 -10
0 -16 -8 -16 -22z"/>
<path d="M1441 3494 c0 -11 3 -14 6 -6 3 7 2 16 -1 19 -3 4 -6 -2 -5 -13z"/>
<path d="M1365 3481 c-3 -5 -1 -12 5 -16 5 -3 10 1 10 9 0 18 -6 21 -15 7z"/>
<path d="M1208 3250 c-3 -21 -1 -27 6 -20 13 13 18 50 7 50 -5 0 -11 -14 -13
-30z"/>
<path d="M1220 3194 c0 -8 5 -12 10 -9 6 4 8 11 5 16 -9 14 -15 11 -15 -7z"/>
<path d="M1997 3103 c-8 -27 -43 -120 -77 -207 -33 -87 -59 -161 -57 -163 5
-5 328 -5 333 0 6 6 -168 417 -176 417 -3 0 -14 -21 -23 -47z"/>
<path d="M1462 2170 c0 -14 2 -19 5 -12 2 6 2 18 0 25 -3 6 -5 1 -5 -13z"/>
<path d="M1686 2112 c-12 -11 -6 -30 9 -28 14 2 44 25 35 27 -3 0 -13 2 -22 4
-9 2 -19 0 -22 -3z"/>
<path d="M1751 1914 c0 -11 3 -14 6 -6 3 7 2 16 -1 19 -3 4 -6 -2 -5 -13z"/>
<path d="M3152 1916 c1 -14 6 -22 10 -20 12 7 10 44 -2 44 -5 0 -9 -11 -8 -24z"/>
<path d="M3040 1910 c0 -5 5 -10 11 -10 5 0 7 5 4 10 -3 6 -8 10 -11 10 -2 0
-4 -4 -4 -10z"/>
<path d="M1343 1379 c-69 -44 -69 -164 0 -227 53 -50 149 -45 189 9 26 34 28
122 4 167 -36 68 -128 93 -193 51z"/>
</g>
</svg>
