<svg xmlns="http://www.w3.org/2000/svg" viewBox="276 196 472 268" fill="none"><path d="M 664.661 219.724 C 665.296 225.500, 667.182 229.408, 671.549 234 L 674.878 237.500 663.251 237.763 C 649.050 238.084, 631.806 241.402, 615.906 246.873 C 600.261 252.256, 593.858 255.042, 568.884 267.337 C 556.996 273.190, 541.890 279.777, 535.315 281.976 C 521.312 286.657, 503.150 289.998, 491.651 290.006 C 474.836 290.018, 457.518 293.839, 443.782 300.569 C 422.401 311.043, 411.961 325.217, 406.510 351.169 C 405.461 356.165, 403.885 360.239, 401.991 362.854 C 398.141 368.168, 388.367 374.692, 379.045 378.170 C 374.898 379.717, 371.378 381.365, 371.223 381.832 C 369.954 385.639, 359.823 399.999, 353.818 406.503 C 341.820 419.498, 323.867 436.392, 314.500 443.501 L 309.500 447.296 313.500 446.572 C 320.538 445.297, 332.213 441.049, 342.500 436.019 C 353.569 430.606, 366.266 421.432, 380.570 408.514 C 387.820 401.966, 390.664 400, 392.888 400 C 394.478 400, 399.541 399.305, 404.140 398.456 C 429.544 393.764, 454.534 381.953, 474.875 365.024 C 478.196 362.261, 481.393 360, 481.981 360 C 482.569 360, 486.076 361.514, 489.775 363.364 C 496.978 366.966, 510.049 371.876, 519 374.342 C 536.671 379.210, 556.889 380.503, 583.352 378.458 C 594.434 377.602, 607.325 376.236, 612 375.421 C 621.793 373.715, 644.127 371, 648.364 371 L 651.241 371 647.457 375.750 C 641.445 383.296, 635.793 389.019, 631.849 391.553 C 629.375 393.144, 626.226 397.165, 622.077 404.034 L 615.954 414.169 619.227 413.465 C 631.422 410.843, 648.062 401.077, 657.063 391.258 C 667.337 380.052, 675.908 364.723, 674.656 359.793 C 673.754 356.239, 670.709 354.990, 658.138 353.015 C 640.235 350.203, 617.571 345.886, 616.873 345.156 C 616.528 344.795, 615.477 342.132, 614.538 339.237 C 611.501 329.875, 602.720 318.786, 591.500 310.144 C 589.800 308.834, 591.967 309.641, 596.500 312.006 C 606.180 317.055, 611.988 321.679, 617.339 328.594 L 621.365 333.798 623.808 329.149 C 631.729 314.074, 644.792 298.985, 654.906 293.228 L 660.312 290.151 660.098 282.820 C 659.980 278.788, 660.287 274.397, 660.781 273.063 C 661.564 270.947, 661.756 271.291, 662.284 275.750 C 663.762 288.231, 673.127 296.955, 685.116 297.018 C 690.142 297.044, 703.493 305.852, 705.391 310.393 C 707.471 315.371, 710.812 317.239, 716.451 316.576 C 718.992 316.277, 721.920 315.578, 722.958 315.023 C 725.458 313.685, 728.850 309.294, 730.578 305.160 C 732.171 301.347, 732.073 301.084, 725.589 291.740 C 718.192 281.080, 711.784 269.225, 710.921 264.605 C 710.332 261.454, 708.213 257.714, 703.565 251.623 C 698.149 244.524, 697.131 242.592, 697.591 240.283 C 697.896 238.752, 697.674 236.262, 697.098 234.750 C 696.189 232.367, 695.502 232, 691.945 232 C 688.570 232, 686.289 230.938, 679.121 226.028 C 674.325 222.744, 669.333 218.919, 668.027 217.528 C 664.669 213.954, 664.070 214.345, 664.661 219.724 M 695.115 264.790 C 698.188 267.096, 703 269.178, 703 268.201 C 703 265.626, 699.621 263, 696.308 263 L 692.730 263 695.115 264.790 M 407.660 288.991 C 393.670 291.503, 382.969 296.057, 358.818 309.780 C 342.077 319.292, 330.669 323.733, 320.547 324.678 C 313.301 325.354, 302.984 323.780, 296.525 321.011 C 294.036 319.944, 292 319.491, 292 320.003 C 292 321.241, 301.442 328.244, 306.598 330.830 C 312.315 333.698, 322.949 336, 330.474 336 C 345.833 336, 359.476 331.233, 381.126 318.302 C 408.655 301.860, 417.945 297.880, 436.750 294.470 C 441.837 293.547, 446 292.425, 446 291.977 C 446 289.382, 417.739 287.181, 407.660 288.991 M 467 379.038 C 458.012 385.872, 441.167 394.261, 428.837 398.043 C 423.151 399.787, 417.375 401.580, 416 402.028 C 411.461 403.506, 427.608 403.094, 438.683 401.450 C 451.585 399.534, 463.939 396.013, 473.893 391.414 C 481.563 387.870, 492.975 380.997, 492.991 379.911 C 492.998 379.436, 481.740 376.015, 475 374.444 C 474.175 374.252, 470.575 376.319, 467 379.038 M 603.500 383.020 C 601.300 383.454, 595.310 384.133, 590.189 384.528 L 580.877 385.247 583.689 386.980 C 585.235 387.934, 587.366 389.688, 588.425 390.879 C 590.340 393.033, 590.333 393.061, 587.186 396.308 C 585.447 398.103, 576.414 405.630, 567.114 413.036 C 557.814 420.441, 550.676 426.673, 551.252 426.883 C 554.537 428.085, 574.595 422.767, 583.469 418.341 C 597.340 411.423, 614 397.418, 614 392.675 C 614 389.223, 610.376 381.961, 608.730 382.115 C 608.053 382.178, 605.700 382.585, 603.500 383.020" fill="#1F1E1D" fill-rule="evenodd"/><path d="M 597.210 217.730 L 603.712 223.779 586.606 224.250 C 572.125 224.648, 567.965 225.134, 559.500 227.418 C 551.305 229.630, 531.001 238.014, 531 239.187 C 531 239.359, 535.837 239.500, 541.750 239.500 C 554.398 239.500, 563.631 240.771, 560.500 242.080 C 545.483 248.359, 531.549 255.028, 518.038 262.402 C 508.984 267.344, 497.361 273.286, 492.209 275.606 C 487.057 277.926, 482.578 280.089, 482.254 280.412 C 480.318 282.348, 504.804 278.952, 517.970 275.459 C 530.406 272.159, 540.450 268.435, 563 258.762 C 583.576 249.936, 590.535 247.171, 603 242.866 C 620.118 236.953, 643.895 232, 655.159 232 C 657.272 232, 659 231.625, 659 231.166 C 659 230.051, 643.309 222.727, 634.245 219.612 C 624.826 216.375, 608.798 213.076, 598.705 212.298 L 590.708 211.681 597.210 217.730 M 418.386 302.852 C 408.993 306.121, 402.329 309.732, 385 320.943 C 357.871 338.494, 344.053 343.450, 323.914 342.852 L 312.069 342.500 316.593 344.799 C 330.553 351.893, 352.018 352.940, 368.166 347.315 C 380.864 342.892, 391.313 335.465, 405.603 320.707 C 412.258 313.833, 420.021 306.545, 422.852 304.511 C 430.549 298.981, 430.043 298.794, 418.386 302.852" fill="#D97757" fill-rule="evenodd"/></svg>
