<svg xmlns="http://www.w3.org/2000/svg" viewBox="20 55 820 210" version="1.1">

  <!-- Signature / MY mark -->
  <path d="M 217 71.682 C 212.829 73.632, 177.047 109.420, 161.500 127.192 C 155.450 134.108, 150.392 139.673, 150.260 139.560 C 150.128 139.446, 151.757 133.537, 153.879 126.427 C 159.281 108.330, 160.308 103.456, 159.559 99.465 C 158.694 94.852, 155.191 92.545, 150.263 93.345 C 142.078 94.673, 120.696 112.821, 96.840 138.689 C 75.067 162.298, 67.921 171.112, 68.231 173.977 C 68.511 176.557, 72.313 179.201, 74.522 178.353 C 75.202 178.092, 80.200 172.625, 85.629 166.204 C 105.324 142.908, 146.504 103.170, 148.687 105.353 C 149.396 106.063, 149.504 105.657, 141.063 134.109 C 134.358 156.711, 133.620 161.517, 136.524 163.641 C 140.606 166.626, 139.644 167.479, 166.599 136.979 C 188.330 112.389, 211.293 88.380, 211.755 89.766 C 211.939 90.317, 205.941 103.533, 198.427 119.134 C 171.344 175.362, 159.471 202.995, 154.484 221.408 C 151.454 232.594, 150.785 242.230, 152.899 244.217 C 154.042 245.291, 154.164 244.964, 153.650 242.215 C 151.627 231.397, 166.302 197.775, 200.445 135 C 217.326 103.964, 226.868 84.240, 227.606 78.859 C 228.138 74.974, 227.902 73.902, 226.120 72.120 C 223.590 69.590, 221.672 69.498, 217 71.682 M 373.500 82.482 C 363.676 85.134, 349.245 91.762, 331.500 101.770 C 319.302 108.651, 281.569 131.638, 272 138.019 C 257.990 147.361, 258.420 148.183, 266.602 127.695 C 275.434 105.580, 275.649 104.792, 273.447 102.589 C 270.144 99.287, 266.907 100.929, 262.974 107.902 C 255.002 122.035, 244.471 130.378, 234.500 130.459 L 229.500 130.500 229.764 127 C 229.909 125.075, 232.057 119.275, 234.537 114.112 C 239.354 104.086, 239.525 101.421, 235.420 100.391 C 231.971 99.525, 230.728 100.914, 225.468 111.512 C 218.102 126.354, 218.278 135.290, 226.014 139.313 C 230.591 141.692, 239.295 140.927, 246.816 137.484 C 249.835 136.102, 252.404 135.090, 252.526 135.236 C 252.647 135.381, 250.661 140.360, 248.111 146.301 L 243.475 157.101 233.700 164.425 C 217.393 176.644, 204.615 187.604, 195.220 197.431 C 182.553 210.682, 179.360 218.375, 184.054 224.341 C 188.120 229.510, 199.752 230.207, 208.395 225.799 C 218.185 220.807, 230.219 204.643, 243.978 178 L 252.500 161.500 267 151.694 C 288.792 136.957, 327.638 112.683, 344.068 103.536 C 370.886 88.607, 387.217 84.026, 391.214 90.313 C 392.453 92.260, 392.105 97.335, 390.388 102.376 C 389.501 104.979, 388.960 107.294, 389.186 107.520 C 389.950 108.284, 395.045 99.548, 396.082 95.694 C 399.123 84.401, 388.788 78.354, 373.500 82.482 M 510.676 151.402 C 510.048 153.038, 510.786 154, 512.667 154 C 513.400 154, 514 153.100, 514 152 C 514 149.726, 511.492 149.275, 510.676 151.402 M 516.500 151 C 515.663 152.354, 516.792 154, 518.559 154 C 519.352 154, 520 153.100, 520 152 C 520 149.930, 517.587 149.240, 516.500 151" stroke="none" fill="#ffffff" fill-rule="evenodd"/>

  <!-- Clean text -->
  <text
  x="520"
  y="175"
  text-anchor="middle"
  font-family="Arial, Helvetica, sans-serif"
  font-size="34"
  font-weight="700"
  letter-spacing="12"
  fill="#ffffff">
  MEHMET YÜCESOY
</text>

<text
  x="520"
  y="225"
  text-anchor="middle"
  font-family="Arial, Helvetica, sans-serif"
  font-size="27"
  font-weight="400"
  letter-spacing="14"
  fill="#ffffff">
  AVUKAT

</text>
</svg>
