<svg xmlns="http://www.w3.org/2000/svg" width="100%" height="auto" viewBox="0 0 1024 443" version="1.1">
	<path d="M 0 221.501 L 0 443.002 512.250 442.751 L 1024.500 442.500 1024.752 221.250 L 1025.004 0 512.502 0 L 0 0 0 221.501 M 0.491 222 C 0.491 343.825, 0.608 393.663, 0.750 332.750 C 0.892 271.838, 0.892 172.163, 0.750 111.250 C 0.608 50.338, 0.491 100.175, 0.491 222 M 317.791 99.968 C 312.803 101.509, 308.680 105.256, 270.475 142.967 C 232.327 180.621, 211.277 200.630, 210.583 199.894 C 210.379 199.677, 212.634 190.050, 215.594 178.500 C 223.342 148.272, 224.188 143.791, 223.078 138.852 C 221.087 129.992, 213.961 127.019, 204.843 131.245 C 193.823 136.353, 170.543 157.519, 128.183 200.943 C 91.506 238.541, 88 242.411, 88 245.288 C 88 249.295, 90.722 252, 94.754 252 C 98.830 252, 95.910 254.782, 142 207.004 C 154.925 193.605, 171.575 177.063, 179 170.243 C 193.547 156.882, 206.677 146.344, 207.612 147.279 C 208.428 148.095, 206.040 158.104, 197.952 187.772 C 194.094 201.922, 190.661 216.325, 190.322 219.779 C 189.767 225.432, 189.937 226.304, 192.027 228.529 C 193.626 230.230, 195.422 231, 197.796 231 C 201.816 231, 197.197 235.274, 262.920 170.733 C 287.433 146.661, 307.626 127.378, 307.794 127.881 C 307.962 128.385, 301.264 141.780, 292.911 157.648 C 256.624 226.580, 240.627 259.352, 229.527 287.500 C 217.128 318.941, 213.353 338.630, 218.399 345.531 C 219.532 347.080, 219.793 345.942, 220.262 337.416 C 220.853 326.662, 223.031 319.164, 230.985 300.500 C 239.535 280.436, 256.461 248.548, 283.144 202.229 C 318.701 140.509, 325.521 127.642, 328.484 116.695 C 331.190 106.701, 329.338 100.942, 323 99.644 C 321.625 99.362, 319.281 99.508, 317.791 99.968 M 533 117.439 C 512.870 123.076, 487.056 137.193, 398.110 191.206 C 381.945 201.022, 368.622 208.929, 368.504 208.777 C 368.385 208.624, 372.064 199.725, 376.679 189 C 393.986 148.785, 394.873 145.873, 391 142 C 386.759 137.759, 381.424 140.230, 377.362 148.320 C 371.046 160.896, 357.580 175.645, 347.966 180.517 C 342.124 183.478, 330.814 185.126, 329.618 183.191 C 328.338 181.120, 331.162 172.353, 336.544 161.689 C 342.416 150.053, 343.017 147.230, 340.171 144.655 C 336.831 141.632, 333.313 142.543, 330.379 147.192 C 325.423 155.043, 317.981 171.484, 316.790 177.216 C 315.735 182.291, 315.820 183.456, 317.551 187.613 C 320.066 193.652, 323.246 195.931, 330.572 196.943 C 337.593 197.912, 348.542 195.545, 355.799 191.489 C 358.277 190.104, 360.424 189.091, 360.570 189.237 C 360.800 189.467, 351.662 211.510, 347.555 220.632 C 346.515 222.942, 341.602 226.852, 328.822 235.537 C 286.496 264.305, 266.266 281.675, 255.494 298.500 C 251.214 305.185, 249.662 310.309, 250.273 315.733 C 250.930 321.556, 253.462 324.928, 259.421 327.913 C 263.385 329.900, 265.766 330.330, 272.869 330.345 C 284.077 330.368, 290.850 328.293, 299.550 322.168 C 317.281 309.686, 332.278 287.123, 354.493 239.507 L 358.695 230.500 377.358 218.500 C 451.926 170.552, 485.048 150.371, 509.500 137.988 C 529.127 128.048, 537.666 125, 545.886 125 C 554.060 125, 557 127.359, 557 133.916 C 557 136.540, 556.100 141.303, 555 144.500 C 552.610 151.446, 552.515 152.647, 554.486 151.011 C 557.468 148.537, 563 135.867, 563 131.514 C 563 126.218, 559.847 121.327, 554.470 118.282 C 549.884 115.684, 540.571 115.319, 533 117.439 M 729.390 213.426 C 728.480 215.797, 729.767 218.191, 731.747 217.810 C 732.854 217.597, 733.500 216.561, 733.500 215 C 733.500 212.149, 730.344 210.941, 729.390 213.426 M 737.389 213.430 C 736.393 216.025, 737.788 218.169, 740.246 217.820 C 741.898 217.585, 742.500 216.833, 742.500 215 C 742.500 213.167, 741.898 212.415, 740.246 212.180 C 738.893 211.988, 737.750 212.488, 737.389 213.430 M 431.667 221.667 C 431.300 222.033, 431 229.233, 431 237.667 L 431 253 434.500 253 L 438 253 438.052 243.250 L 438.104 233.500 442.189 243.250 C 445.878 252.053, 446.529 253, 448.888 252.999 C 451.252 252.999, 451.880 252.073, 455.500 243.249 L 459.500 233.500 459.786 243.250 L 460.072 253 463.036 253 L 466 253 466 236.940 L 466 220.879 462.275 221.190 C 458.718 221.486, 458.428 221.793, 455.825 228 C 454.325 231.575, 452.150 236.750, 450.991 239.500 L 448.883 244.500 443.823 232.750 C 438.865 221.235, 438.700 221, 435.549 221 C 433.780 221, 432.033 221.300, 431.667 221.667 M 481 236.962 L 481 253 490.500 253 C 499.917 253, 500 252.979, 500 250.548 C 500 248.238, 499.637 248.078, 493.750 247.798 L 487.500 247.500 487.500 243.500 C 487.500 241.033, 487.979 239.452, 488.750 239.375 C 489.438 239.306, 491.800 239.194, 494 239.125 C 497.567 239.014, 498 238.729, 498 236.500 C 498 234.133, 497.704 234, 492.440 234 L 486.879 234 487.190 230.250 L 487.500 226.500 493.813 226.201 C 499.673 225.923, 500.104 225.743, 499.813 223.701 C 499.520 221.639, 498.916 221.482, 490.250 221.212 L 481 220.925 481 236.962 M 514 237 L 514 253.127 517.250 252.813 C 520.500 252.500, 520.500 252.500, 520.798 246.250 L 521.095 240 527.548 240 L 534 240 534 246.563 L 534 253.127 537.250 252.813 L 540.500 252.500 540.500 237 L 540.500 221.500 537.250 221.187 L 534 220.873 534 227.437 L 534 234 527.548 234 L 521.095 234 520.798 227.750 C 520.500 221.500, 520.500 221.500, 517.250 221.187 L 514 220.873 514 237 M 555 237 L 555 253 558.500 253 L 562 253 562.051 243.250 L 562.101 233.500 565.941 243 C 569.502 251.809, 569.984 252.500, 572.568 252.500 C 575.127 252.500, 575.654 251.784, 579 243.761 C 581.005 238.954, 582.950 234.717, 583.322 234.344 C 583.695 233.972, 584 238.017, 584 243.333 L 584 253 587 253 L 590 253 590 236.940 L 590 220.879 586.262 221.190 C 582.641 221.490, 582.422 221.735, 579.284 229 C 577.503 233.125, 575.323 238.287, 574.442 240.472 L 572.838 244.444 567.801 232.722 L 562.764 221 558.882 221 L 555 221 555 237 M 605 236.962 L 605 253 614.500 253 C 623.967 253, 624 252.991, 624 250.500 C 624 248.116, 623.726 248, 618.105 248 L 612.210 248 611.824 243.948 C 611.611 241.719, 611.639 239.694, 611.885 239.448 C 612.132 239.202, 614.508 239, 617.167 239 C 621.656 239, 622 238.822, 622 236.500 C 622 234.151, 621.683 234, 616.750 234.001 L 611.500 234.001 611.602 230.251 L 611.703 226.500 617.915 226.201 C 623.670 225.923, 624.103 225.740, 623.813 223.701 C 623.520 221.639, 622.916 221.482, 614.250 221.212 L 605 220.925 605 236.962 M 636.667 221.667 C 636.300 222.033, 636 223.132, 636 224.109 C 636 225.483, 636.961 225.955, 640.250 226.193 L 644.500 226.500 644.779 239.750 L 645.058 253 648 253 L 650.942 253 651.221 239.750 L 651.500 226.500 655.750 226.193 C 659.506 225.921, 660 225.601, 660 223.443 L 660 221 648.667 221 C 642.433 221, 637.033 221.300, 636.667 221.667 M 683 221.585 C 683 221.908, 685.250 226.551, 688 231.905 C 692.271 240.219, 693 242.467, 693 247.319 L 693 253 696.500 253 L 700 253 700 247.482 C 700 242.855, 700.808 240.354, 705 232 C 707.750 226.520, 710 221.803, 710 221.518 C 710 221.233, 708.473 221, 706.606 221 C 703.382 221, 703.045 221.354, 699.851 228.107 L 696.490 235.214 693.052 228.107 C 689.819 221.424, 689.417 221, 686.307 221 C 684.488 221, 683 221.263, 683 221.585 M 723.169 233.911 C 723.489 246.534, 723.588 247.048, 726.185 249.642 C 729.640 253.094, 738.018 254.076, 742.820 251.593 C 747.917 248.958, 749 245.619, 749 232.550 L 749 221 745.500 221 L 742 221 742 232.429 C 742 245.295, 741.245 247, 735.551 247 C 730.479 247, 729.781 245.336, 729.577 232.753 L 729.395 221.500 726.116 221.181 L 722.838 220.861 723.169 233.911 M 770.367 222.918 C 759.498 229.545, 759.969 245.752, 771.200 251.595 C 774.726 253.429, 782.344 253.391, 785.961 251.520 C 788.823 250.040, 793 245.497, 793 243.865 C 793 242.112, 786.006 242.994, 784 245 C 781.013 247.987, 775.004 247.698, 771.924 244.419 C 770.025 242.398, 769.500 240.755, 769.500 236.833 C 769.500 232.588, 769.926 231.460, 772.306 229.413 C 775.831 226.381, 781.191 226.191, 784 229 C 786.006 231.006, 793 231.888, 793 230.135 C 793 228.503, 788.823 223.960, 785.961 222.480 C 781.907 220.383, 774.167 220.601, 770.367 222.918 M 808 237 L 808 253 817 253 C 825.933 253, 826 252.981, 826 250.500 C 826 248.108, 825.737 248, 819.943 248 L 813.885 248 814.193 243.750 L 814.500 239.500 819.750 239.198 C 824.571 238.920, 825 238.696, 825 236.448 C 825 234.144, 824.672 234, 819.440 234 L 813.879 234 814.190 230.250 L 814.500 226.500 820.250 226.200 C 825.604 225.921, 826 225.731, 826 223.450 C 826 221.031, 825.884 221, 817 221 L 808 221 808 237 M 842.923 223.923 C 837.115 229.731, 839.779 235.933, 849.573 239.407 C 855.676 241.572, 857.301 243.727, 854.960 246.548 C 853.225 248.639, 849.226 248.334, 847.768 246 C 846.934 244.665, 845.436 244, 843.259 244 C 838.948 244, 838.866 246.868, 843.077 250.411 C 845.571 252.510, 847.195 253, 851.654 253 C 856.399 253, 857.555 252.599, 860.077 250.077 C 865.889 244.265, 863.220 238.064, 853.414 234.593 C 848.907 232.997, 847.426 231.980, 847.189 230.317 C 846.778 227.430, 850.178 225.490, 853 227 C 854.100 227.589, 855 228.505, 855 229.035 C 855 229.566, 856.575 230, 858.500 230 C 863.056 230, 863.239 227.221, 858.923 223.589 C 856.511 221.559, 854.767 221, 850.846 221 C 846.653 221, 845.374 221.472, 842.923 223.923 M 884.218 222.663 C 879.277 225.098, 876.659 229.457, 876.246 235.935 C 875.590 246.199, 881.635 253, 891.413 253 C 901.204 253, 907.949 246.445, 907.984 236.898 C 908.025 225.211, 894.945 217.376, 884.218 222.663 M 919.177 221.750 C 919.366 222.162, 921.878 227.104, 924.760 232.732 C 929.025 241.059, 930 243.898, 930 247.982 C 930 252.891, 930.065 253, 933 253 C 935.950 253, 936 252.912, 936.021 247.750 C 936.039 243.345, 936.925 240.824, 941.521 232.089 C 944.535 226.362, 947 221.525, 947 221.339 C 947 221.152, 945.421 221, 943.491 221 C 940.167 221, 939.812 221.344, 936.776 227.500 C 935.013 231.075, 933.314 234, 933 234 C 932.686 234, 930.987 231.075, 929.224 227.500 C 926.167 221.301, 925.852 221, 922.426 221 C 920.450 221, 918.988 221.338, 919.177 221.750 M 886.299 228.503 C 883.079 230.758, 881.582 236.202, 882.999 240.497 C 884.462 244.931, 887.411 247, 892.268 247 C 898.005 247, 901 243.570, 901 237 C 901 232.928, 900.509 231.418, 898.545 229.455 C 895.672 226.581, 889.705 226.117, 886.299 228.503 M 324.346 254.880 C 295.701 275.597, 271.090 298.219, 266.596 307.965 C 263.520 314.636, 263.868 314.964, 274.054 314.985 C 280.160 314.997, 282.585 314.513, 286.708 312.458 C 298.293 306.685, 315.888 284.569, 328.478 259.956 C 331.607 253.839, 334.017 248.705, 333.834 248.546 C 333.650 248.388, 329.381 251.238, 324.346 254.880 M 629.497 283.250 C 629.255 283.938, 627.705 288.212, 626.053 292.750 C 623.747 299.086, 623.377 301, 624.458 301 C 625.232 301, 626.151 300.100, 626.500 299 C 627.009 297.396, 628.013 297, 631.567 297 C 634.760 297, 636 297.403, 636 298.441 C 636 300.043, 637.816 301.517, 638.701 300.633 C 639.756 299.578, 632.817 282, 631.346 282 C 630.571 282, 629.739 282.563, 629.497 283.250 M 647.007 282.250 C 647.011 282.387, 648.542 286.550, 650.409 291.500 C 654.918 303.455, 656.207 303.461, 660.618 291.550 C 662.442 286.628, 663.687 282.353, 663.385 282.052 C 662.402 281.069, 660.112 285.155, 657.872 291.885 L 655.678 298.477 652.611 290.238 C 650.925 285.707, 648.972 282, 648.272 282 C 647.573 282, 647.003 282.113, 647.007 282.250 M 672.699 282.750 C 671.801 284.356, 672.024 293.543, 673.036 296.609 C 674.751 301.805, 680.735 303.071, 685.250 299.193 C 686.643 297.997, 687 296.073, 687 289.762 C 687 283.865, 686.680 281.939, 685.750 282.247 C 684.931 282.518, 684.399 285.301, 684.208 290.322 C 683.929 297.646, 683.801 298.012, 681.303 298.639 C 676.690 299.797, 675.530 298.085, 675.208 289.645 C 674.951 282.918, 674.026 280.376, 672.699 282.750 M 697 291.500 C 697 297.167, 697.404 301, 698 301 C 698.550 301, 699.018 299.087, 699.041 296.750 L 699.082 292.500 702.927 296.750 C 705.042 299.087, 707.592 301, 708.594 301 C 709.975 301, 709.352 299.916, 706.028 296.528 L 701.639 292.057 705.879 287.028 C 710.981 280.978, 708.979 280.067, 703.619 286 C 701.631 288.200, 699.779 290, 699.503 290 C 699.226 290, 699 288.200, 699 286 C 699 283.800, 698.550 282, 698 282 C 697.404 282, 697 285.833, 697 291.500 M 724.211 283.689 C 722.100 287.824, 717.822 300.155, 718.324 300.657 C 719.188 301.522, 721 300.021, 721 298.441 C 721 297.395, 722.261 297, 725.594 297 C 729.346 297, 730.283 297.366, 730.710 299 C 730.998 300.100, 731.846 301, 732.595 301 C 733.607 301, 733.118 298.638, 730.698 291.823 C 727.358 282.419, 725.834 280.509, 724.211 283.689 M 742 283 C 742 283.550, 743.125 284, 744.500 284 C 746.971 284, 747 284.100, 747 292.500 C 747 303.446, 748.826 303.652, 749.210 292.750 C 749.498 284.562, 749.521 284.498, 752.267 284.182 C 753.789 284.007, 754.775 283.445, 754.458 282.932 C 753.679 281.672, 742 281.735, 742 283 M 630.162 288.111 C 627.588 294.984, 627.591 295, 631.425 295 L 634.984 295 633.329 290.750 C 631.202 285.285, 631.216 285.296, 630.162 288.111 M 724.158 289.866 C 722.601 295.065, 722.576 295, 726.067 295 C 729.337 295, 729.356 294.840, 726.891 288.250 C 725.758 285.222, 725.505 285.372, 724.158 289.866" stroke="none" fill="black" fill-rule="evenodd"/>
</svg>
