<svg xmlns="http://www.w3.org/2000/svg" viewBox="0 0 1024 768" version="1.1">
	<path d="M 0.495 384.500 C 0.495 595.700, 0.610 681.951, 0.750 576.169 C 0.890 470.386, 0.890 297.586, 0.750 192.169 C 0.610 86.751, 0.495 173.300, 0.495 384.500 M 505.509 114.161 C 494.372 123.664, 483.594 130.104, 473 133.584 C 468.325 135.119, 462.622 135.473, 435 135.945 L 402.500 136.500 402.500 195.500 C 402.500 261.213, 402.365 259.690, 409.554 274.911 C 416.272 289.134, 426.370 301.273, 442.447 314.452 C 452.984 323.090, 508.654 364.908, 510.661 365.692 C 511.907 366.179, 513.446 365.084, 554.500 334.491 C 592.731 306.002, 604.030 294.688, 612.909 276 C 620.162 260.737, 620 262.566, 620 195.790 L 620 136 589.210 136 C 564.748 136, 557.195 135.684, 552.460 134.461 C 540.607 131.402, 527.629 123.997, 516.846 114.142 L 511.382 109.149 505.509 114.161 M 503.500 132.208 C 495.179 138.170, 485.037 143.217, 475.464 146.159 C 469.292 148.055, 465.457 148.349, 441.750 148.745 L 415 149.192 415 201.670 L 415 254.147 417.558 261.824 C 424.366 282.257, 436.565 295.080, 480.816 328.319 L 511.133 351.091 518.316 345.812 C 580.218 300.324, 593.830 288.070, 602.231 270.268 C 607.966 258.114, 607.975 258.006, 607.988 201.250 L 608 149 584.684 149 C 571.860 149, 558.697 148.527, 555.434 147.949 C 542.180 145.601, 530.656 140.593, 517.202 131.334 C 513.738 128.950, 510.813 127.043, 510.702 127.096 C 510.591 127.148, 507.350 129.449, 503.500 132.208 M 492 157.052 C 461.753 164.882, 439.322 190.398, 435.146 221.724 C 433.183 236.454, 437.192 255.307, 445.135 268.694 C 449.642 276.290, 463.032 289.716, 470.739 294.367 C 492.926 307.754, 520.194 309.279, 542.544 298.381 C 558.041 290.825, 570.732 278.327, 577.962 263.500 C 583.161 252.840, 584.992 245.603, 585.684 232.985 C 586.163 224.261, 585.900 221.024, 584.141 213.985 C 577.143 185.983, 555.492 163.770, 528.590 156.993 C 518.070 154.343, 502.367 154.368, 492 157.052 M 498.105 185.583 C 482.546 189.767, 469.622 202.835, 465.538 218.515 C 461.421 234.321, 466.017 250.832, 477.737 262.340 C 482.471 266.989, 487.782 270.981, 489.250 270.993 C 489.663 270.997, 490 260.831, 490 248.401 C 490 223.871, 490.350 221.954, 495.844 216.400 C 506.124 206.005, 522.891 209.081, 529.104 222.500 C 534.107 233.305, 528.155 245.885, 516.112 249.962 L 511.116 251.653 520.972 261.472 L 530.828 271.291 535.198 268.730 C 544.284 263.405, 552.695 252.111, 555.448 241.540 C 562.938 212.775, 540.044 183.828, 510 184.078 C 506.425 184.107, 501.072 184.785, 498.105 185.583 M 180.411 383.484 C 168.764 386.018, 157.171 393.531, 150.946 402.579 C 149.280 404.999, 146.751 410.021, 145.325 413.740 C 141.852 422.793, 141.613 438.400, 144.813 447.249 C 148.938 458.658, 157.663 468.727, 167.991 473.995 C 177.416 478.804, 194.908 480.465, 205.744 477.580 C 226.631 472.020, 241 453.250, 241 431.529 C 241 417.800, 236.230 405.605, 227.365 396.669 C 220.542 389.791, 212.068 385.299, 202.443 383.458 C 193.325 381.713, 188.523 381.719, 180.411 383.484 M 353 383.567 C 327.756 389.033, 311.993 412.163, 315.784 438.176 C 318.626 457.674, 331.766 472.657, 350.368 477.610 C 358.185 479.691, 372.532 479.388, 380.338 476.977 C 394.478 472.610, 406.467 461.051, 411.077 447.340 C 414.182 438.106, 414.192 423.274, 411.098 414.581 C 405.212 398.042, 392.749 387.171, 375.483 383.514 C 366.970 381.711, 361.511 381.724, 353 383.567 M 727.902 383.445 C 709.858 387.199, 696.067 400.126, 691.533 417.535 C 690.690 420.772, 690 427.333, 690 432.114 C 690 459.520, 710.121 479.025, 738.355 478.988 C 749.087 478.974, 755.460 477.471, 763.934 472.954 C 785.245 461.596, 793.996 432.684, 783.143 409.491 C 779.702 402.139, 771.638 393.044, 765.228 389.288 C 755.167 383.392, 739.754 380.979, 727.902 383.445 M 430.527 383.904 C 425.089 385.013, 425.031 385.537, 425.015 433.750 L 425 478 435 478 L 445 478 445 460 L 445 442 448.532 442 C 453.803 442, 458.011 444.173, 462.769 449.351 C 467.531 454.533, 474.370 464.780, 478.388 472.750 L 481.034 478 492.100 478 C 498.187 478, 503.013 477.663, 502.824 477.250 C 496.583 463.577, 486.949 448.120, 481.106 442.406 L 476.920 438.311 481.701 435.851 C 487.306 432.967, 492.479 426.640, 494.084 420.708 C 495.700 414.732, 494.761 403.360, 492.250 398.500 C 488.747 391.720, 482.992 387.393, 474.500 385.156 C 469.985 383.966, 435.094 382.973, 430.527 383.904 M 620.507 383.792 C 611.431 384.405, 612 381.133, 612 432.691 L 612 478.072 621.750 477.786 L 631.500 477.500 631.774 460.877 L 632.047 444.255 645.774 443.739 C 661.393 443.152, 666.606 441.741, 672.822 436.420 C 675.053 434.511, 678.117 430.416, 679.631 427.321 C 681.942 422.598, 682.386 420.392, 682.393 413.597 C 682.409 398.854, 676.046 389.800, 663.023 386.033 C 656.588 384.172, 633.163 382.937, 620.507 383.792 M 803.851 384.163 C 802.394 384.678, 800.700 386.315, 800.087 387.800 C 799.311 389.679, 799.052 403.731, 799.236 434 L 799.500 477.500 809.250 477.786 L 819 478.072 819 460.036 L 819 442 823.250 442.004 C 831.173 442.011, 836.497 447.115, 848.570 466.278 L 855.641 477.500 866.070 477.700 L 876.500 477.900 890.159 462.077 L 903.819 446.253 898.432 440.933 L 893.046 435.614 889.554 439.557 C 887.633 441.726, 882.346 447.843, 877.804 453.151 L 869.546 462.802 865.524 456.151 C 863.312 452.493, 859.027 446.956, 856.001 443.847 L 850.500 438.194 855.807 435.445 C 865.104 430.628, 869.564 421.696, 868.780 409.469 C 867.998 397.281, 861.196 388.804, 849.564 385.517 C 843.502 383.804, 807.853 382.748, 803.851 384.163 M 240.211 392.750 L 240.500 401.500 254.250 401.778 L 268 402.056 268 440.028 L 268 478 278 478 L 288 478 288 440 L 288 402 301.873 402 L 315.746 402 316.248 396.776 C 316.524 393.902, 316.522 389.852, 316.243 387.776 L 315.737 384 277.829 384 L 239.922 384 240.211 392.750 M 543.605 384.830 C 540.852 389.285, 506 474.625, 506 476.912 C 506 477.732, 508.973 477.987, 516.196 477.785 L 526.392 477.500 530.343 467.231 L 534.294 456.961 555.265 457.231 L 576.236 457.500 580.191 467.750 L 584.146 478 594.640 478 C 605.062 478, 605.130 477.984, 604.442 475.750 C 603.214 471.763, 584.359 425.058, 576.485 406.500 C 572.284 396.600, 568.443 387.488, 567.948 386.250 C 567.089 384.100, 566.541 384, 555.584 384 C 549.278 384, 543.887 384.373, 543.605 384.830 M 181.054 402.668 C 174.748 404.979, 167.707 412.356, 165.519 418.943 C 158.579 439.837, 171.102 460, 191.018 460 C 199.714 460, 206.020 457.745, 210.861 452.904 C 224.898 438.867, 221.559 412.503, 204.643 403.800 C 199.115 400.956, 187.274 400.388, 181.054 402.668 M 353.572 403.018 C 340.430 408.149, 333.484 423.630, 337.423 439.007 C 340.759 452.027, 349.187 459.106, 362.230 459.843 C 371.516 460.368, 377.083 458.630, 382.917 453.385 C 391.810 445.389, 394.838 431.768, 390.549 419.058 C 385.666 404.593, 368.552 397.169, 353.572 403.018 M 445 413 L 445 425 454.532 425 C 465.660 425, 470.161 423.524, 472.434 419.128 C 475.720 412.773, 473.788 405.953, 467.843 402.920 C 464.911 401.424, 461.973 401, 454.540 401 L 445 401 445 413 M 632 413.500 L 632 426 642.250 425.996 C 650.730 425.993, 653.066 425.648, 655.775 423.996 C 659.430 421.768, 661 418.579, 661 413.385 C 661 404.481, 655.373 401, 640.980 401 L 632 401 632 413.500 M 729 402.537 C 722.961 404.412, 718.053 408.670, 714.466 415.144 C 711.706 420.128, 711.500 421.230, 711.500 431 C 711.500 443.307, 713.033 447.218, 720.399 453.702 C 725.819 458.473, 730.515 460.007, 739.616 459.978 C 750.910 459.942, 759 454.779, 764.090 444.358 C 767.449 437.482, 767.500 424.690, 764.198 417.500 C 758.033 404.079, 743.682 397.978, 729 402.537 M 819 413 L 819 425 828.599 425 C 835.269 425, 839.212 424.519, 841.522 423.423 C 844.964 421.789, 848 416.905, 848 413 C 848 409.095, 844.964 404.211, 841.522 402.577 C 839.212 401.481, 835.269 401, 828.599 401 L 819 401 819 413 M 554.188 407 C 553.652 408.375, 550.466 416.369, 547.107 424.764 C 543.748 433.159, 541 440.246, 541 440.514 C 541 440.781, 547.300 441, 555 441 C 566.250 441, 569 440.728, 569 439.617 C 569 438.392, 565.629 429.744, 557.649 410.500 C 555.290 404.809, 555.112 404.629, 554.188 407 M 307.687 516.805 C 305.644 518.938, 305 520.614, 305 523.805 L 305 528 308.979 528 L 312.957 528 312.828 521 C 312.683 513.137, 311.851 512.458, 307.687 516.805 M 320.636 516.636 C 318.593 518.679, 318 520.255, 318 523.636 L 318 528 321.992 528 L 325.985 528 325.774 521 C 325.539 513.208, 324.742 512.531, 320.636 516.636 M 418 521.383 L 418 528.766 413.960 527.374 C 407.457 525.134, 401.010 527.664, 399.075 533.215 C 397.214 538.553, 397.726 551.038, 399.956 554.696 C 402.716 559.222, 408.507 560.890, 413.990 558.736 C 416.204 557.866, 418 557.600, 418 558.141 C 418 558.680, 419.688 558.981, 421.750 558.810 L 425.500 558.500 425.769 536.250 L 426.038 514 422.019 514 L 418 514 418 521.383 M 584.713 514.621 C 584.321 515.013, 584 516.608, 584 518.167 C 584 520.748, 584.317 521, 587.563 521 C 590.981 521, 591.114 520.867, 590.813 517.750 C 590.559 515.116, 590.019 514.444, 587.963 514.204 C 586.567 514.041, 585.104 514.229, 584.713 514.621 M 597 517.500 C 597 520.833, 597.167 521, 600.500 521 C 604.113 521, 604.480 520.393, 603.370 516.250 C 602.921 514.576, 602.028 514, 599.883 514 C 597.255 514, 597 514.309, 597 517.500 M 714.175 519.769 C 714.300 522.943, 714.090 526.046, 713.707 526.665 C 713.325 527.284, 713.658 528.039, 714.449 528.342 C 715.302 528.669, 717.129 527.478, 718.943 525.412 C 721.253 522.781, 722 520.961, 722 517.965 C 722 514.001, 721.999 514, 717.974 514 L 713.947 514 714.175 519.769 M 726 517.300 C 726 519.115, 726.492 521.092, 727.093 521.693 C 727.883 522.483, 727.857 523.398, 727 525 C 726.177 526.537, 726.134 527.534, 726.857 528.257 C 727.581 528.981, 728.987 528.213, 731.450 525.750 C 734.362 522.838, 735 521.463, 735 518.100 L 735 514 730.500 514 C 726.076 514, 726 514.056, 726 517.300 M 340.313 527.065 C 333.491 529.119, 330.797 537.332, 335.250 542.499 C 336.939 544.459, 338.877 545.296, 343.025 545.857 C 346.064 546.268, 349.102 546.945, 349.775 547.361 C 351.520 548.440, 351.291 551.674, 349.418 552.393 C 346.433 553.539, 340.443 552.999, 338.125 551.375 C 335.950 549.851, 335.678 549.877, 333.764 551.792 C 332.641 552.915, 331.975 554.492, 332.283 555.296 C 332.942 557.012, 341.120 560, 345.158 560 C 350.239 560, 355.723 557.103, 357.423 553.521 C 359.364 549.432, 359.375 548.627, 357.547 545.091 C 355.970 542.041, 352.838 540.478, 346.308 539.483 C 341.270 538.715, 339.152 536.726, 341 534.500 C 342.448 532.755, 348.227 532.516, 351.149 534.080 C 352.731 534.926, 353.580 534.785, 355.083 533.425 C 356.137 532.471, 357 531.157, 357 530.506 C 357 527.693, 345.856 525.395, 340.313 527.065 M 371.625 527.424 C 366.066 529.470, 365.396 530.429, 367.393 533.476 C 368.970 535.884, 369.228 535.954, 371.264 534.528 C 373.864 532.707, 380.112 532.512, 381.800 534.200 C 382.460 534.860, 383 536.435, 383 537.700 C 383 539.824, 382.575 540, 377.450 540 C 368.242 540, 364 543.305, 364 550.480 C 364 557.466, 371.924 561.730, 379.233 558.676 C 381.564 557.702, 383.129 557.529, 383.773 558.173 C 384.314 558.714, 386.049 559.009, 387.628 558.828 L 390.500 558.500 390.500 546.396 C 390.500 533.279, 389.590 530.046, 385.358 528.117 C 381.190 526.218, 375.659 525.939, 371.625 527.424 M 442.643 526.997 C 436.198 528.999, 433 534.322, 433 543.049 C 433 551.233, 435.053 555.363, 440.409 557.956 C 445.849 560.589, 449.522 560.537, 454.988 557.750 C 460.336 555.023, 460.912 553.643, 457.605 551.477 C 455.299 549.966, 454.895 549.960, 452.821 551.413 C 449.463 553.765, 445.299 553.389, 442.381 550.472 C 438.220 546.311, 439.560 545.500, 450.586 545.500 L 460.500 545.500 460.269 540.104 C 460.024 534.366, 458.372 530.929, 454.736 528.588 C 451.724 526.648, 446.134 525.913, 442.643 526.997 M 475.643 526.984 C 469.406 528.949, 466 534.587, 466 542.948 C 466 550.688, 468.387 555.525, 473.406 557.955 C 475.730 559.080, 478.629 560, 479.848 560 C 482.877 560, 488.196 557.676, 489.918 555.600 C 491.161 554.101, 491.081 553.636, 489.265 551.821 C 487.322 549.877, 487.052 549.850, 484.875 551.375 C 481.552 553.703, 477.420 553.438, 475.557 550.777 C 474.601 549.413, 474 546.409, 474 543 C 474 539.591, 474.601 536.587, 475.557 535.223 C 477.420 532.562, 481.552 532.297, 484.875 534.625 C 487.056 536.152, 487.322 536.122, 489.322 534.122 L 491.449 531.995 488.975 529.539 C 486.177 526.764, 480.063 525.592, 475.643 526.984 M 505.789 526.683 C 494.248 528.565, 491.305 550.912, 501.701 557.724 C 505.751 560.378, 514.541 560.065, 519.344 557.096 L 523.180 554.726 520.690 552.236 C 518.329 549.874, 518.081 549.830, 515.878 551.373 C 510.870 554.881, 503 552.132, 503 546.875 C 503 545.031, 503.411 544.832, 506.109 545.372 C 507.819 545.714, 512.319 545.705, 516.109 545.353 L 523 544.713 523 540.758 C 523 535.943, 520.619 530.636, 517.560 528.631 C 514.939 526.914, 509.697 526.046, 505.789 526.683 M 551.315 527.430 C 545.941 529.824, 543.308 537.303, 544.494 546.800 C 545.420 554.207, 549.813 559, 555.677 559 C 557.810 559, 560.555 558.299, 561.777 557.443 C 563.905 555.953, 564 555.999, 564 558.509 C 564 563.329, 562.350 565, 557.587 565 C 554.905 565, 552.758 564.414, 551.972 563.467 C 550.844 562.107, 550.433 562.184, 548.350 564.141 C 547.057 565.355, 546 566.745, 546 567.231 C 546 567.716, 548.094 569.039, 550.654 570.171 C 558.307 573.557, 566.390 571.688, 570.050 565.686 C 571.780 562.848, 571.993 560.562, 571.996 544.750 L 572 527 568 527 C 565.709 527, 564 527.480, 564 528.122 C 564 528.905, 563.621 528.932, 562.750 528.212 C 560.496 526.349, 554.640 525.949, 551.315 527.430 M 653.643 526.983 C 647.391 528.955, 644 534.587, 644 543 C 644 552.141, 648.277 558.211, 655.698 559.603 C 659.796 560.372, 665.832 558.778, 669.153 556.050 L 671.500 554.122 669.380 551.968 C 667.366 549.923, 667.104 549.895, 664.179 551.407 C 662.485 552.283, 660.052 553, 658.772 553 C 655.409 553, 652 550.258, 652 547.553 C 652 545.260, 652.170 545.221, 661.750 545.332 L 671.500 545.446 671.362 540.218 C 671.214 534.613, 669.433 530.985, 665.592 528.468 C 662.556 526.479, 657.308 525.827, 653.643 526.983 M 691.500 526.719 C 690.400 526.987, 688.712 527.905, 687.750 528.758 C 686.160 530.168, 686 530.153, 686 528.595 C 686 527.224, 685.247 526.942, 682.250 527.190 L 678.500 527.500 678.500 543 L 678.500 558.500 682.250 558.810 L 686 559.121 686 548.060 C 686 538.333, 686.241 536.759, 688 535 C 689.100 533.900, 690.900 533, 692 533 C 693.100 533, 694.900 533.900, 696 535 C 697.759 536.759, 698 538.333, 698 548.060 L 698 559.121 701.750 558.810 L 705.500 558.500 705.500 546 C 705.500 531.978, 704.462 529.054, 698.785 527.075 C 695.567 525.953, 694.799 525.916, 691.500 526.719 M 580.056 538.250 C 580.087 544.438, 580.650 551.075, 581.306 553 C 583.486 559.392, 593.129 561.908, 598.124 557.388 C 599.852 555.824, 600 555.820, 600 557.345 C 600 558.570, 600.910 559, 603.500 559 L 607 559 607 543 L 607 527 603.586 527 L 600.172 527 599.836 538.583 C 599.544 548.666, 599.249 550.349, 597.559 551.583 C 594.894 553.529, 591.635 553.359, 589.655 551.171 C 588.323 549.699, 588 547.163, 588 538.171 L 588 527 584 527 L 580 527 580.056 538.250 M 612.235 528.250 C 612.482 528.938, 615.110 536.138, 618.075 544.250 L 623.466 559 627.233 559 C 629.305 559, 631 558.843, 631 558.652 C 631 558.460, 633.475 551.376, 636.500 542.910 C 639.525 534.443, 642 527.400, 642 527.258 C 642 527.116, 640.244 527, 638.098 527 L 634.197 527 631.034 537.250 C 629.294 542.888, 627.750 547.950, 627.602 548.500 C 627.454 549.050, 625.646 544.438, 623.584 538.250 L 619.835 527 615.810 527 C 613.018 527, 611.923 527.383, 612.235 528.250 M 407.653 534.490 C 404.188 537.955, 404.425 550.087, 407.995 551.997 C 411.138 553.680, 414.779 553.154, 416.443 550.777 C 418.821 547.383, 418.544 537.544, 416 535 C 413.637 532.637, 409.744 532.399, 407.653 534.490 M 442.792 534.250 C 441.918 534.938, 440.901 536.513, 440.534 537.750 C 439.888 539.923, 440.091 540, 446.433 540 C 452.252 540, 453 539.780, 453 538.071 C 453 533.758, 446.509 531.328, 442.792 534.250 M 504.557 535.223 C 501.728 539.261, 502.493 540, 509.500 540 C 516.507 540, 517.272 539.261, 514.443 535.223 C 513.356 533.670, 511.866 533, 509.500 533 C 507.134 533, 505.644 533.670, 504.557 535.223 M 554 535 C 551.480 537.520, 551.213 546.431, 553.557 549.777 C 555.405 552.417, 560.096 552.761, 562.429 550.429 C 564.790 548.067, 564.607 536.859, 562.171 534.655 C 559.712 532.430, 556.432 532.568, 554 535 M 653.571 534.571 C 652.707 535.436, 652 537.011, 652 538.071 C 652 539.762, 652.741 540, 658 540 C 663.259 540, 664 539.762, 664 538.071 C 664 535.284, 661.298 533, 658 533 C 656.429 533, 654.436 533.707, 653.571 534.571 M 374.297 545.700 C 370.524 546.431, 370.147 552.804, 373.857 553.156 C 380.074 553.744, 383 552.055, 383 547.878 C 383 545.270, 382.695 545.013, 379.750 545.136 C 377.962 545.211, 375.509 545.465, 374.297 545.700 M 253 595.500 C 253 596.830, 282.667 597, 514 597 C 745.333 597, 775 596.830, 775 595.500 C 775 594.170, 745.333 594, 514 594 C 282.667 594, 253 594.170, 253 595.500 M 582.452 622.882 C 582.203 623.130, 582 631.604, 582 641.712 C 582 659.892, 582.027 660.117, 584.455 662.545 C 585.986 664.077, 588.054 665, 589.955 665 C 592.644 665, 593 664.663, 593 662.117 C 593 660.086, 592.416 659.080, 591.023 658.716 C 589.162 658.230, 589.031 657.168, 588.773 640.436 L 588.500 622.673 585.702 622.551 C 584.163 622.484, 582.700 622.633, 582.452 622.882 M 366.455 627.451 C 366.078 629.963, 365.988 633.157, 366.254 634.549 C 366.520 635.940, 366.459 636.934, 366.119 636.758 C 361.105 634.151, 359.771 633.820, 356.637 634.408 C 349.782 635.694, 345.886 644.083, 347.413 654.267 C 348.376 660.689, 351.574 664.085, 357.265 664.726 C 360.654 665.108, 362.662 664.796, 364.480 663.605 C 365.866 662.697, 367 662.414, 367 662.977 C 367 663.540, 368.584 664, 370.521 664 L 374.041 664 373.771 643.750 L 373.500 623.500 370.320 623.192 C 367.249 622.894, 367.117 623.040, 366.455 627.451 M 654.445 624.019 C 649.256 625.611, 646.500 629.438, 646.500 635.053 C 646.500 641.219, 648.288 643.130, 657.567 646.880 C 663.839 649.414, 664.529 649.974, 664.806 652.745 C 665.033 655.016, 664.523 656.221, 662.834 657.404 C 659.858 659.488, 657.457 659.390, 652.118 656.968 C 647.949 655.076, 647.670 655.065, 646.385 656.740 C 644.134 659.674, 645.262 661.403, 650.791 663.500 C 654.845 665.037, 655.964 665.906, 655.626 667.254 C 655.321 668.466, 655.929 669.195, 657.593 669.613 C 658.917 669.945, 660 670.570, 660 671.001 C 660 672.134, 657.234 673.027, 655.631 672.412 C 654.819 672.100, 654.044 672.724, 653.724 673.948 C 653.308 675.539, 653.765 676.154, 655.733 676.648 C 659.561 677.609, 663.325 675.860, 664.477 672.586 C 665.376 670.028, 665.182 669.479, 662.733 667.650 L 659.976 665.592 664.135 664.046 C 669.428 662.078, 672.273 658.311, 672.273 653.268 C 672.273 647.509, 670.474 645.090, 664.164 642.363 C 654.690 638.268, 653.512 637.513, 653.197 635.341 C 652.501 630.544, 660.820 628.084, 665.842 631.602 C 667.966 633.089, 668.232 633.071, 669.548 631.352 C 670.327 630.334, 670.855 628.828, 670.720 628.008 C 670.172 624.665, 660.259 622.235, 654.445 624.019 M 711.230 643.723 L 711.500 664.446 713.750 664.334 C 718.772 664.085, 719.104 663.977, 718.393 662.827 C 717.994 662.182, 718.743 662.407, 720.057 663.327 C 725.547 667.173, 733.786 664.493, 736.376 658.018 C 741.899 644.215, 732.784 629.970, 721.902 635.399 C 718.163 637.264, 717.663 637.354, 718.492 636.013 C 718.828 635.470, 718.796 632.320, 718.422 629.013 L 717.742 623 714.351 623 L 710.959 623 711.230 643.723 M 269 644 L 269 664 272.500 664 L 276 664 276.035 650.750 L 276.070 637.500 280.412 648 C 284.702 658.373, 284.795 658.500, 288.098 658.500 C 291.407 658.500, 291.484 658.393, 295.683 648 L 299.926 637.500 299.963 650.750 L 300 664 303.500 664 L 307 664 307 643.943 L 307 623.885 302.758 624.193 L 298.515 624.500 293.349 637.437 L 288.183 650.374 286.760 646.937 C 285.978 645.047, 283.591 639.112, 281.457 633.750 L 277.577 624 273.289 624 L 269 624 269 644 M 517 624.814 C 517 625.262, 519.689 630.775, 522.976 637.064 C 528.766 648.142, 528.954 648.742, 528.976 656.250 L 529 664 532.500 664 L 536 664 536 656.729 C 536 649.677, 536.195 649.098, 542.496 637.479 C 546.069 630.891, 548.994 625.135, 548.996 624.690 C 548.998 624.244, 547.313 624.019, 545.250 624.190 C 541.724 624.482, 541.308 624.887, 538.282 631 C 532.512 642.657, 533.287 642.524, 528.353 632.705 C 524.111 624.264, 523.873 624, 520.489 624 C 518.570 624, 517 624.366, 517 624.814 M 386.370 635.386 C 382.316 637.221, 381.394 638.822, 383.295 640.724 C 384.548 641.976, 385.418 642.050, 388.063 641.128 C 389.842 640.508, 392.099 640, 393.078 640 C 395.424 640, 398 642.654, 398 645.071 C 398 646.765, 397.258 647, 391.923 647 C 386.540 647, 385.512 647.334, 382.923 649.923 C 379.760 653.086, 379.017 658.137, 381.282 661.087 C 384.343 665.074, 391.734 666.276, 395.777 663.443 C 397.023 662.571, 398 662.351, 398 662.943 C 398 663.524, 399.575 664, 401.500 664 L 405 664 404.900 653.750 C 404.845 648.112, 404.497 642.416, 404.127 641.090 C 402.584 635.576, 392.855 632.451, 386.370 635.386 M 422.520 635.566 C 420.597 636.569, 419.415 636.744, 419.187 636.060 C 418.992 635.477, 417.509 635, 415.890 635 L 412.947 635 413.223 649.750 L 413.500 664.500 416.500 664.495 L 419.500 664.491 419.763 653.995 C 419.994 644.742, 420.274 643.293, 422.124 641.750 C 424.819 639.502, 427.263 639.529, 429.345 641.829 C 430.654 643.275, 431 645.760, 431 653.720 C 431 663.669, 431.029 663.790, 433.546 664.422 C 434.946 664.774, 436.521 664.796, 437.046 664.472 C 438.289 663.703, 438.287 642.884, 437.043 639.613 C 435.979 636.815, 431.333 633.997, 427.800 634.006 C 426.535 634.010, 424.159 634.712, 422.520 635.566 M 479.370 635.385 C 475.288 637.234, 474.395 638.824, 476.345 640.773 C 477.643 642.072, 478.388 642.144, 480.510 641.177 C 485.850 638.744, 491 640.656, 491 645.071 C 491 646.765, 490.258 647, 484.923 647 C 479.540 647, 478.512 647.334, 475.923 649.923 C 473.928 651.918, 473 653.848, 473 656 C 473 660.660, 477.678 665, 482.701 665 C 484.820 665, 487.518 664.326, 488.695 663.501 C 489.871 662.677, 490.984 662.409, 491.167 662.907 C 491.350 663.404, 492.850 663.966, 494.500 664.155 L 497.500 664.500 497.500 652.270 C 497.500 640.360, 497.430 639.971, 494.839 637.382 C 491.605 634.151, 484.204 633.196, 479.370 635.385 M 556.071 635.698 C 550.554 638.597, 548.758 641.879, 548.704 649.155 C 548.646 657.032, 550.812 661.606, 555.534 663.579 C 562.537 666.505, 570.107 664.475, 573.478 658.767 C 575.918 654.637, 575.995 644.167, 573.612 640.530 C 569.827 634.753, 561.980 632.592, 556.071 635.698 M 750.270 635.483 C 745.277 637.653, 743.008 642.268, 743.004 650.265 C 743 656.531, 743.244 657.296, 746.312 660.643 C 749.082 663.666, 750.457 664.337, 754.716 664.747 C 758.785 665.138, 760.631 664.773, 763.905 662.933 L 768.002 660.631 765.864 658.355 C 763.926 656.292, 763.530 656.216, 761.640 657.539 C 757.467 660.463, 750 658.180, 750 653.981 C 750 652.265, 750.920 652.046, 759.250 651.788 L 768.500 651.500 768.220 647.142 C 767.835 641.154, 765.503 637.108, 761.466 635.421 C 757.249 633.659, 754.428 633.675, 750.270 635.483 M 316.032 647.250 C 316.053 655.299, 316.481 660.044, 317.282 661.087 C 320.343 665.074, 327.734 666.276, 331.777 663.443 C 333.023 662.571, 334 662.351, 334 662.943 C 334 663.524, 335.575 664, 337.500 664 L 341 664 341 649.500 L 341 635 337.591 635 L 334.182 635 333.841 645.582 C 333.548 654.669, 333.226 656.365, 331.559 657.582 C 329.186 659.315, 325.815 659.415, 324.200 657.800 C 323.415 657.015, 323 652.867, 323 645.800 L 323 635 319.500 635 L 316 635 316.032 647.250 M 442.283 636.250 C 451.080 658.383, 453.063 664.235, 452.446 666.245 C 451.386 669.704, 449.986 671, 447.311 671 C 445.235 671, 444.915 671.414, 445.184 673.750 C 445.448 676.049, 446.039 676.552, 448.787 676.816 C 454.208 677.338, 456.814 673.429, 464.080 653.874 C 467.611 644.371, 470.650 636.236, 470.833 635.798 C 471.017 635.359, 469.414 635, 467.271 635 L 463.376 635 460.498 644.250 C 458.914 649.337, 457.318 653.864, 456.950 654.309 C 456.583 654.754, 454.769 650.592, 452.921 645.059 L 449.560 635 445.673 635 C 442.965 635, 441.937 635.379, 442.283 636.250 M 599 647.077 C 599 659.092, 599.015 659.169, 601.923 662.077 C 605.294 665.448, 611.043 666.059, 614.777 663.443 C 616.023 662.571, 617 662.351, 617 662.943 C 617 663.524, 618.575 664, 620.500 664 L 624 664 624 649.500 L 624 635 620.500 635 L 617 635 617 645 C 617 653.667, 616.733 655.267, 615 657 C 612.767 659.233, 610.805 659.501, 607.934 657.965 C 606.202 657.038, 606 655.782, 606 645.965 L 606 635 602.500 635 L 599 635 599 647.077 M 678 645.532 C 678 657.595, 679.453 662.461, 683.517 664.006 C 687.379 665.475, 691.244 665.218, 693.965 663.312 C 695.674 662.115, 696.490 661.970, 696.771 662.812 C 696.988 663.465, 698.595 664, 700.341 664 L 703.515 664 703.507 649.750 L 703.500 635.500 700 635.500 L 696.500 635.500 696 646.290 C 695.472 657.680, 694.901 658.953, 690.307 658.985 C 686.318 659.013, 685 655.483, 685 644.777 L 685 635 681.500 635 L 678 635 678 645.532 M 356.667 641.816 C 352.860 646.022, 353.371 656.301, 357.480 658.173 C 361.530 660.018, 364.777 658.477, 366.092 654.087 C 368.874 644.803, 362.029 635.891, 356.667 641.816 M 558.223 641.557 C 556.326 642.885, 556 644.037, 556 649.402 C 556 656.403, 557.670 659, 562.174 659 C 566.290 659, 568 656.133, 568 649.228 C 568 644.043, 567.662 642.877, 565.777 641.557 C 564.555 640.701, 562.855 640, 562 640 C 561.145 640, 559.445 640.701, 558.223 641.557 M 720.977 641.818 C 719.113 643.327, 718.713 644.696, 718.616 649.895 C 718.491 656.641, 720.016 659, 724.500 659 C 728.912 659, 730.467 656.652, 730.467 649.991 C 730.467 644.700, 730.125 643.519, 728.123 641.898 C 725.200 639.531, 723.820 639.516, 720.977 641.818 M 752.223 641.557 C 751 642.413, 750 643.988, 750 645.057 C 750 646.765, 750.725 647, 756 647 C 762.635 647, 763.686 645.686, 760 642 C 757.597 639.597, 755.214 639.462, 752.223 641.557 M 388.040 653.452 C 385.839 656.104, 387.209 658.474, 391.134 658.803 C 395.145 659.139, 398 657.112, 398 653.929 C 398 652.318, 397.279 652, 393.622 652 C 391.016 652, 388.757 652.587, 388.040 653.452 M 480.384 653.442 C 479.156 656.641, 480.453 658.495, 484.134 658.803 C 488.145 659.139, 491 657.112, 491 653.929 C 491 652.279, 490.271 652, 485.969 652 C 482.509 652, 480.764 652.450, 480.384 653.442" stroke="none" fill="#ffffff" fill-rule="evenodd"/>
</svg>
