<svg xmlns="http://www.w3.org/2000/svg" width="100%" height="auto" viewBox="28 18 530 470" version="1.1">
    <path d="M 291.667 26.667 C 291.300 27.033, 291 35.575, 291 45.648 L 291 63.962 288.250 64.599 C 280.202 66.464, 272.223 73.788, 269.314 81.980 L 267.531 87 232.965 87 C 207.415 87, 198.087 87.313, 197.200 88.200 C 195.398 90.002, 195.754 92.798, 197.934 93.965 C 199.161 94.621, 212.520 95, 234.434 95 C 268.558 95, 269 95.026, 269 97.040 C 269 103.289, 279.071 114.224, 286.709 116.267 L 291 117.415 291 126.207 L 291 135 287.493 135 L 283.987 135 284.243 206.077 L 284.500 277.154 295.500 277.154 L 306.500 277.154 306.757 206.077 L 307.013 135 303.007 135 L 299 135 299 126.235 L 299 117.469 304.105 115.656 C 310.783 113.285, 317.285 106.783, 319.656 100.105 L 321.469 95 356.163 95 C 386.370 95, 391.060 94.797, 392.429 93.429 C 393.293 92.564, 394 91.304, 394 90.629 C 394 87.190, 392.022 87, 356.300 87 C 322.948 87, 321 86.900, 321 85.196 C 321 84.204, 319.842 81.068, 318.426 78.227 C 315.606 72.569, 309.112 67.112, 302.750 65.057 L 299 63.845 299 46.504 C 299 36.967, 298.727 28.452, 298.393 27.582 C 297.790 26.010, 292.978 25.356, 291.667 26.667 M 285.500 73.167 C 281.980 75.114, 278.858 78.398, 276.903 82.210 C 275.856 84.251, 275 86.163, 275 86.460 C 275 86.757, 278.600 87, 283 87 L 291 87 291 79.500 C 291 71.445, 290.226 70.553, 285.500 73.167 M 299 79.500 L 299 87 306.500 87 C 311.344 87, 314 86.606, 314 85.886 C 314 83.303, 309.373 76.851, 305.847 74.518 C 299.646 70.414, 299 70.883, 299 79.500 M 277.495 99.814 C 279.989 104.395, 286.705 110, 289.700 110 C 290.651 110, 291 107.987, 291 102.500 L 291 95 282.938 95 L 274.875 95 277.495 99.814 M 299 102.500 C 299 106.625, 299.243 110, 299.540 110 C 300.906 110, 307.669 106.020, 309.129 104.356 C 310.734 102.528, 314 96.623, 314 95.550 C 314 95.247, 310.625 95, 306.500 95 L 299 95 299 102.500 M 201 106.863 C 201 107.337, 193.742 123.425, 184.871 142.613 C 176 161.801, 166.159 183.125, 163.003 190 C 159.846 196.875, 156.079 204.947, 154.632 207.937 C 153.184 210.928, 152 213.740, 152 214.187 C 152 214.634, 154.036 215, 156.525 215 C 160.293 215, 161.195 214.624, 161.919 212.750 C 162.397 211.512, 171.385 192.115, 181.894 169.644 C 192.402 147.173, 201 128.359, 201 127.835 C 201 125.786, 203.043 128.310, 205.011 132.791 C 206.148 135.381, 215.243 154.938, 225.222 176.250 L 243.365 215 247.790 215 C 251.586 215, 252.121 214.752, 251.560 213.250 C 249.140 206.779, 202.350 106.064, 201.750 106.035 C 201.338 106.016, 201 106.388, 201 106.863 M 380.978 119.739 C 377.494 127.308, 372.975 137.100, 370.936 141.500 C 368.897 145.900, 360.601 163.900, 352.500 181.500 C 344.400 199.100, 337.572 213.838, 337.327 214.250 C 337.082 214.662, 339.046 214.984, 341.691 214.964 L 346.500 214.928 361.453 182.714 C 369.676 164.996, 378.746 145.418, 381.608 139.207 C 384.470 132.995, 387.124 127.912, 387.506 127.910 C 388.181 127.907, 391.188 134.152, 408.489 171.500 C 413.075 181.400, 419.544 195.238, 422.863 202.250 L 428.899 215 433.557 215 C 436.905 215, 438.062 214.649, 437.671 213.750 C 435.124 207.880, 388.099 106.765, 387.758 106.424 C 387.513 106.179, 384.462 112.171, 380.978 119.739 M 292.456 137.253 C 292.192 137.942, 292.094 155.829, 292.238 177.003 L 292.500 215.500 294.750 215.820 L 297 216.139 297 176.070 C 297 136.460, 296.977 136, 294.969 136 C 293.851 136, 292.721 136.564, 292.456 137.253 M 142.571 221.571 C 140.484 223.659, 140.584 226.314, 142.829 228.345 C 144.485 229.844, 150.018 230, 201.606 230 C 251.531 230, 258.829 229.808, 260.777 228.443 C 263.195 226.750, 263.709 223.109, 261.800 221.200 C 260.894 220.294, 246.327 220, 202.371 220 C 150.770 220, 143.964 220.179, 142.571 221.571 M 327.655 221.829 C 325.492 224.219, 325.567 225.567, 328 228 C 329.953 229.953, 331.333 230, 387.066 230 C 424.490 230, 444.797 229.644, 446.066 228.965 C 448.258 227.792, 448.701 223.101, 446.800 221.200 C 445.894 220.294, 431.346 220, 387.455 220 C 332.395 220, 329.222 220.097, 327.655 221.829 M 153.371 234.209 C 152.540 235.553, 159.799 248.513, 164.135 253.428 C 169.839 259.893, 178.761 265.566, 187.305 268.161 C 196.295 270.892, 211.530 270.399, 220.143 267.099 C 227.466 264.293, 237.764 256.452, 242.373 250.173 C 245.372 246.088, 251.590 234.050, 250.737 233.981 C 245.011 233.512, 153.670 233.726, 153.371 234.209 M 339.350 234.243 C 338.278 235.977, 345.560 248.525, 351.037 254.381 C 360.744 264.758, 373.023 270.019, 387.432 269.976 C 400.929 269.935, 409.893 266.835, 419.530 258.876 C 427.252 252.499, 436 239.641, 436 234.667 C 436 233.794, 423.892 233.500, 387.905 233.500 C 361.452 233.500, 339.603 233.834, 339.350 234.243 M 272.566 283.328 C 271.548 284.072, 270.750 285.906, 270.750 287.500 C 270.750 292.619, 272.431 293, 295.036 293 C 313.775 293, 315.843 292.830, 317.345 291.171 C 319.516 288.772, 319.445 285.713, 317.171 283.655 C 315.595 282.228, 312.516 282, 294.862 282 C 279.415 282, 273.936 282.326, 272.566 283.328 M 250.223 298.557 C 247.630 300.372, 247.316 304.173, 249.571 306.429 C 250.952 307.809, 256.452 308, 294.871 308 C 327.549 308, 338.903 307.697, 339.800 306.800 C 341.593 305.007, 341.248 300.534, 339.171 298.655 C 337.530 297.170, 332.989 297, 294.894 297 C 258.093 297, 252.149 297.207, 250.223 298.557 M 222.223 314.557 C 219.611 316.386, 219.398 318.696, 221.557 321.777 L 223.113 324 294.485 324 C 372.258 324, 369 324.240, 369 318.500 C 369 312.762, 372.194 313, 295.151 313 C 232.775 313, 224.183 313.183, 222.223 314.557 M 63 320 C 59.134 323.866, 61.902 331.021, 67.250 330.985 C 70.072 330.965, 71.386 330.098, 72.874 327.271 C 76.279 320.804, 68.168 314.832, 63 320 M 84.455 320.455 C 81.460 323.449, 81.387 324.951, 84.073 328.365 C 87.889 333.217, 95 330.702, 95 324.500 C 95 318.403, 88.861 316.048, 84.455 320.455 M 133.994 342.934 C 129.310 344.359, 125.245 346.920, 122.514 350.166 C 120.090 353.046, 119.835 354.037, 120.202 359.121 C 120.777 367.064, 124.249 371.663, 135.956 379.990 C 149.026 389.286, 152 392.807, 152 398.984 C 152 406.568, 146.187 410.855, 137.642 409.574 C 131.538 408.658, 127.298 405.668, 124.792 400.510 C 120.942 392.583, 119.100 395.157, 120.631 406.325 C 121.231 410.701, 121.417 410.925, 124.381 410.850 C 126.096 410.807, 128.767 411.273, 130.315 411.886 C 131.863 412.499, 134.451 413, 136.065 413 C 137.679 413, 139 413.291, 139 413.647 C 139 414.003, 137.375 416.278, 135.388 418.702 C 133.402 421.126, 131.939 423.232, 132.138 423.382 C 132.337 423.532, 133.963 424.237, 135.750 424.949 C 142.066 427.463, 139.170 432.957, 130.750 434.433 C 126.773 435.130, 125.659 437.440, 128.816 438.442 C 130.665 439.029, 140.196 437.562, 142.327 436.362 C 148.822 432.707, 150.145 425.646, 145.043 421.873 L 142.086 419.687 144.684 416.594 C 146.114 414.892, 149.582 412.258, 152.392 410.740 C 161.897 405.603, 165.029 399.404, 162.686 390.370 C 160.905 383.503, 157.416 379.324, 147.759 372.488 C 137.618 365.310, 134.236 362.293, 132.411 358.800 C 130.326 354.810, 130.689 351.220, 133.455 348.455 C 138.350 343.559, 150.989 346.478, 155.105 353.454 C 157.639 357.748, 159 357.982, 159 354.125 C 159 348.466, 157.832 345, 155.924 345 C 154.919 345, 151.506 344.325, 148.339 343.500 C 142.147 341.887, 137.976 341.723, 133.994 342.934 M 35 344.921 C 35 345.427, 36.349 346.137, 37.999 346.500 C 43.687 347.749, 44 349.174, 44 373.836 C 44 394.892, 44.128 396.456, 46.149 400.051 C 50.779 408.289, 61.531 413.221, 75 413.285 C 87.894 413.346, 96.247 408.973, 101.329 399.500 C 103.290 395.846, 103.520 393.545, 103.988 372.901 C 104.550 348.105, 104.695 347.523, 110.600 346.415 C 117.753 345.073, 113.486 344, 101 344 C 88.577 344, 84.368 345.024, 91.184 346.387 C 97.965 347.743, 98.002 347.883, 97.984 372.405 C 97.968 393.499, 97.864 394.681, 95.703 398.497 C 92.223 404.642, 86.285 407.500, 77 407.500 C 67.285 407.500, 62.840 405, 59.392 397.596 C 57.136 392.749, 57.019 391.481, 57.010 371.684 C 57.004 359.533, 57.421 350.081, 58.012 348.977 C 58.569 347.937, 60.594 346.792, 62.512 346.432 C 70.152 344.999, 65.219 344, 50.500 344 C 41.725 344, 35 344.399, 35 344.921 M 172 344.964 C 172 345.513, 173.238 346.227, 174.750 346.550 C 176.262 346.874, 178.512 347.548, 179.750 348.048 L 182 348.957 182 378.318 L 182 407.679 179.453 408.839 C 178.052 409.478, 175.127 410, 172.953 410 C 170.106 410, 169 410.420, 169 411.500 C 169 412.798, 172.821 413, 197.386 413 L 225.773 413 226.334 408.750 C 228.215 394.505, 228.243 393.752, 226.880 394.207 C 226.142 394.453, 225.148 396.304, 224.672 398.320 C 224.177 400.410, 222.523 403.065, 220.826 404.493 C 218.093 406.793, 217.043 407, 208.123 407 C 201.894 407, 197.969 406.569, 197.200 405.800 C 196.402 405.002, 196 400.636, 196 392.764 L 196 380.928 205.728 381.214 L 215.456 381.500 216.365 384.500 C 216.864 386.150, 217.433 388.091, 217.629 388.813 C 217.825 389.536, 218.439 389.847, 218.993 389.504 C 219.570 389.148, 220 384.207, 220 377.941 C 220 368.882, 219.742 367, 218.500 367 C 217.578 367, 217 367.937, 217 369.429 C 217 373.933, 214.689 375, 204.929 375 L 196 375 196 362.500 L 196 350 206.345 350 C 218.032 350, 219.302 350.650, 220.529 357.261 C 221.861 364.440, 223.085 362.314, 222.790 353.334 L 222.500 344.500 197.250 344.233 C 180.937 344.060, 172 344.319, 172 344.964 M 236 345.500 C 236 346.492, 236.992 347, 238.929 347 C 245.098 347, 245.172 347.392, 244.819 377.891 C 244.468 408.303, 244.158 410, 238.965 410 C 236.996 410, 236 410.504, 236 411.500 C 236 412.759, 238.167 413, 249.500 413 C 260.274 413, 263 412.723, 263 411.628 C 263 410.810, 261.451 410.008, 259.169 409.643 C 251.993 408.496, 251.929 408.239, 252.231 381.958 L 252.500 358.616 276.812 385.707 C 290.184 400.608, 301.932 413.011, 302.920 413.269 C 303.908 413.527, 305.455 413.325, 306.358 412.820 C 307.824 411.999, 308 408.659, 308 381.605 C 308 353.153, 308.115 351.206, 309.893 349.597 C 310.933 348.655, 312.950 347.573, 314.374 347.192 C 315.797 346.812, 316.971 346.050, 316.981 345.500 C 316.993 344.884, 312.013 344.500, 304 344.500 C 296.014 344.500, 290.992 344.886, 290.979 345.500 C 290.968 346.050, 292.495 346.637, 294.373 346.804 C 300.583 347.357, 300.845 348.277, 301.190 370.763 C 301.360 381.895, 301.247 391.002, 300.937 391.001 C 300.628 391.001, 290.766 380.425, 279.021 367.500 L 257.668 344 246.834 344 C 237.870 344, 236 344.259, 236 345.500 M 327 345.243 C 327 345.968, 328.350 347.071, 330 347.694 C 332.986 348.821, 333 348.864, 332.971 356.663 C 332.956 360.973, 332.312 373.943, 331.542 385.484 C 330.242 404.954, 329.983 406.595, 327.960 408.234 C 326.760 409.205, 324.666 410, 323.306 410 C 321.773 410, 320.991 410.475, 321.248 411.250 C 321.543 412.137, 325.193 412.581, 333.832 412.781 C 344.212 413.020, 346 412.837, 346 411.531 C 346 410.679, 345.134 410, 344.047 410 C 342.973 410, 340.890 409.451, 339.418 408.781 L 336.741 407.561 337.477 393.031 C 337.881 385.039, 338.534 375.350, 338.927 371.500 L 339.642 364.500 343.071 371.984 C 362.269 413.884, 361.554 412.500, 364.002 412.500 C 366.073 412.500, 367.431 410.168, 375.651 392.500 C 380.768 381.500, 385.646 370.789, 386.490 368.699 C 387.334 366.608, 388.382 365.118, 388.819 365.388 C 389.256 365.658, 389.738 369.844, 389.890 374.690 C 390.043 379.535, 390.471 388.617, 390.843 394.872 C 391.609 407.777, 390.973 409.682, 385.737 410.188 C 383.957 410.359, 382.500 410.950, 382.500 411.500 C 382.500 412.114, 388.767 412.606, 398.750 412.775 C 412.765 413.012, 415 412.840, 415 411.525 C 415 410.679, 414.130 410, 413.047 410 C 409.774 410, 405.978 407.775, 405.503 405.579 C 404.415 400.547, 402.279 351.364, 403.082 349.855 C 403.564 348.951, 405.401 347.707, 407.166 347.092 C 412.537 345.220, 409.177 343.884, 399.907 344.207 L 391.500 344.500 389.238 349 C 387.994 351.475, 382.861 362.613, 377.832 373.750 C 372.802 384.887, 368.389 394, 368.026 394 C 367.663 394, 362.365 382.863, 356.253 369.250 L 345.140 344.500 336.070 344.212 C 329.085 343.991, 327 344.228, 327 345.243 M 421 344.807 C 421 345.269, 423.137 346.289, 425.750 347.074 L 430.500 348.500 430.776 377.500 C 431.047 406.069, 431.019 406.526, 428.915 408.250 C 427.601 409.326, 425.089 410, 422.389 410 C 419.154 410, 418 410.394, 418 411.500 C 418 412.798, 421.825 413, 446.428 413 L 474.856 413 475.479 407.250 C 475.822 404.087, 476.353 399.759, 476.659 397.631 C 477.396 392.511, 474.910 393.085, 473.672 398.320 C 473.177 400.410, 471.523 403.065, 469.826 404.493 C 467.093 406.793, 466.043 407, 457.123 407 C 450.894 407, 446.969 406.569, 446.200 405.800 C 445.402 405.002, 445 400.636, 445 392.764 L 445 380.928 454.728 381.214 L 464.456 381.500 465.365 384.500 C 465.864 386.150, 466.433 388.091, 466.629 388.813 C 466.825 389.536, 467.439 389.847, 467.993 389.504 C 468.570 389.148, 469 384.207, 469 377.941 C 469 368.882, 468.742 367, 467.500 367 C 466.593 367, 466 367.927, 466 369.345 C 466 373.709, 463.186 375, 453.671 375 L 445 375 445 362.500 L 445 350 455.345 350 C 467.008 350, 468.232 350.628, 469.412 357.215 C 470.735 364.599, 472.088 362.391, 471.790 353.334 L 471.500 344.500 446.250 344.233 C 432.363 344.086, 421 344.344, 421 344.807 M 492.642 347.750 C 492.301 349.813, 492.017 353.863, 492.011 356.750 C 492.002 361.218, 492.279 362, 493.872 362 C 495.277 362, 495.901 361.020, 496.372 358.072 C 496.781 355.517, 497.921 353.421, 499.635 352.072 C 502.023 350.194, 503.617 350, 516.635 350 C 524.536 350, 531 350.241, 531 350.536 C 531 350.831, 520.652 364.400, 508.004 380.689 C 489.980 403.903, 485.250 410.596, 486.127 411.653 C 487.705 413.554, 549.861 413.648, 550.451 411.750 C 550.665 411.063, 551.124 405.850, 551.471 400.167 C 552.055 390.620, 551.968 389.860, 550.328 390.175 C 549.118 390.408, 548.326 391.844, 547.841 394.682 C 546.958 399.856, 544.590 404.560, 542.455 405.379 C 539.686 406.442, 505 406.098, 505 405.008 C 505 404.462, 512.058 394.899, 520.684 383.758 C 529.310 372.616, 539.210 359.830, 542.684 355.345 C 546.158 350.860, 549 346.472, 549 345.595 C 549 344.173, 545.975 344, 521.131 344 L 493.262 344 492.642 347.750 M 196.500 445.705 C 194.809 446.621, 194.045 447.512, 194.750 447.748 C 196.327 448.276, 196.572 477, 195 477 C 194.450 477, 194 477.450, 194 478 C 194 478.550, 196.025 479, 198.500 479 C 203.281 479, 203.771 478.628, 201.704 476.562 C 200.602 475.459, 200.412 472.496, 200.949 464.773 C 201.061 463.176, 205.988 460.862, 207.951 461.484 C 209.762 462.059, 210 462.957, 210 469.207 C 210 474.770, 209.626 476.563, 208.250 477.608 C 206.723 478.767, 207.170 478.940, 211.750 478.968 C 217.380 479.002, 217.831 478.688, 215.500 476.357 C 214.481 475.338, 214 472.817, 214 468.500 C 214 464.054, 213.528 461.670, 212.429 460.571 C 210.453 458.596, 205.985 458.544, 203.441 460.468 C 202.374 461.276, 201.219 461.951, 200.876 461.968 C 200.532 461.986, 200.482 457.950, 200.764 453 C 201.048 448.021, 200.880 444.018, 200.389 444.040 C 199.900 444.062, 198.150 444.811, 196.500 445.705 M 285.500 445.743 C 283.133 447.056, 282.869 447.485, 284.250 447.777 C 285.815 448.108, 286 449.619, 286 462.105 C 286 473.589, 285.734 476.165, 284.500 476.638 C 281.418 477.821, 283.165 479, 288 479 C 292.835 479, 294.582 477.821, 291.500 476.638 C 289.928 476.035, 289.296 469, 290.813 469 C 291.260 469, 292.894 470.324, 294.445 471.942 C 296.350 473.931, 297.089 475.551, 296.725 476.942 C 296.232 478.829, 296.630 479, 301.507 479 L 306.827 479 301.413 473.455 C 298.436 470.406, 296 467.521, 296 467.044 C 296 466.169, 300.145 462.504, 303.616 460.309 C 305.218 459.296, 304.752 459.121, 300.500 459.138 C 297.750 459.149, 296.063 459.385, 296.750 459.662 C 298.888 460.525, 298.122 462.407, 294.681 464.750 C 292.864 465.988, 291.067 467, 290.688 467 C 290.310 467, 290 461.825, 290 455.500 C 290 449.175, 289.663 444.018, 289.250 444.040 C 288.837 444.062, 287.150 444.829, 285.500 445.743 M 375.500 445.705 C 373.809 446.621, 373.045 447.512, 373.750 447.748 C 375.327 448.276, 375.572 477, 374 477 C 373.450 477, 373 477.450, 373 478 C 373 478.550, 375.025 479, 377.500 479 C 381.606 479, 383.601 477.700, 380.885 476.795 C 379.442 476.314, 378.602 469, 379.991 469 C 381.944 469, 386.941 475.439, 386.394 477.250 C 385.934 478.771, 386.597 479, 391.459 479 L 397.053 479 390.777 473.014 L 384.500 467.029 387 464.952 C 388.375 463.810, 390.850 462.005, 392.500 460.941 L 395.500 459.007 390.628 459.004 C 386.586 459.001, 385.951 459.237, 386.906 460.387 C 387.817 461.484, 387.398 462.329, 384.903 464.428 C 383.168 465.888, 381.248 466.916, 380.637 466.712 C 379.884 466.461, 379.633 462.744, 379.857 455.171 C 380.039 449.027, 379.808 444.018, 379.344 444.040 C 378.880 444.062, 377.150 444.811, 375.500 445.705 M 242.494 459.674 C 240.648 460.043, 240.515 460.727, 240.826 468.288 C 241.076 474.354, 241.585 476.827, 242.773 477.750 C 244.974 479.460, 249.099 479.320, 251.777 477.443 C 253.789 476.034, 254 476.034, 254 477.443 C 254 479.307, 254.185 479.329, 257.453 477.839 C 259.988 476.684, 260.906 475, 259 475 C 258.416 475, 258 471.660, 258 466.981 L 258 458.962 255.250 459.622 C 251.732 460.466, 251.515 460.685, 252.673 462.226 C 253.941 463.912, 253.652 473.748, 252.296 475.104 C 251.710 475.690, 250.166 476.019, 248.865 475.835 C 246.624 475.518, 246.485 475.066, 246.210 467.250 C 246.050 462.712, 245.600 459.061, 245.210 459.136 C 244.819 459.211, 243.597 459.453, 242.494 459.674 M 331.080 460.094 C 329.234 460.832, 328.938 461.338, 329.830 462.230 C 330.509 462.909, 331 466.457, 331 470.681 C 331 477.724, 331.087 477.984, 333.651 478.627 C 335.109 478.993, 337.901 478.714, 339.855 478.008 C 342.341 477.109, 343.517 477.050, 343.770 477.810 C 344.030 478.589, 344.822 478.583, 346.566 477.788 C 349.009 476.675, 349.870 475, 348 475 C 347.416 475, 347 471.644, 347 466.933 C 347 459.032, 346.954 458.879, 344.750 459.545 C 341.998 460.376, 340.078 462, 341.846 462 C 342.746 462, 343.009 463.871, 342.796 468.750 L 342.500 475.500 339 475.500 L 335.500 475.500 335.210 467.250 C 335.050 462.712, 334.600 459.029, 334.210 459.063 C 333.819 459.098, 332.411 459.562, 331.080 460.094" stroke="none" fill="#ffffff" fill-rule="evenodd"/>
</svg>
