<svg width="512" height="512" viewBox="0 0 512 512" fill="none" xmlns="http://www.w3.org/2000/svg">
  <g fill="#06B6D4">
    <!-- central sun -->
    <path d="M178 300c0-43 35-78 78-78s78 35 78 78H178Z"/>

    <!-- horizon/waves -->
    <path d="M104 322c54-8 251-8 304 0-50 9-254 9-304 0Z"/>
    <path d="M146 348c41-7 179-7 220 0-39 8-181 8-220 0Z"/>
    <path d="M196 373c22-5 98-5 120 0-21 6-99 6-120 0Z"/>

    <!-- rays -->
    <path d="M256 74l13 38-13 38-13-38 13-38Z"/>
    <path d="M256 143l11 34-11 34-11-34 11-34Z"/>

    <path d="M210 155l-8 72-24-67 32-5Z"/>
    <path d="M302 155l8 72 24-67-32-5Z"/>

    <path d="M162 187l18 62-45-48 27-14Z"/>
    <path d="M350 187l-18 62 45-48-27-14Z"/>

    <path d="M124 232l38 43-58-21 20-22Z"/>
    <path d="M388 232l-38 43 58-21-20-22Z"/>

    <!-- diamond tips -->
    <path d="M256 42l13 21-13 21-13-21 13-21Z"/>
    <path d="M256 117l8 14-8 14-8-14 8-14Z"/>
    <path d="M200 133l18 9-9 18-18-9 9-18Z"/>
    <path d="M312 133l-18 9 9 18 18-9-9-18Z"/>
    <path d="M147 173l20 4-4 20-20-4 4-20Z"/>
    <path d="M365 173l-20 4 4 20 20-4-4-20Z"/>
    <path d="M100 221l20-2 2 20-20 2-2-20Z"/>
    <path d="M412 221l-20-2-2 20 20 2 2-20Z"/>
  </g>
</svg>
